<svg width="151" height="42" viewBox="0 0 151 42" fill="none" xmlns="http://www.w3.org/2000/svg">
<g clip-path="url(#clip0_61_369)">
<rect width="150.738" height="41.2116" rx="8.91061" fill="#3A3A3A" fill-opacity="0.9"/>
<path d="M44.8093 24.7461C44.4975 24.7461 44.1782 24.7201 43.8514 24.6681C43.5321 24.6235 43.224 24.5567 42.927 24.4676C42.6374 24.3785 42.3775 24.2671 42.1473 24.1335C41.9839 24.0443 41.8688 23.9293 41.802 23.7882C41.7352 23.6397 41.7092 23.4911 41.724 23.3426C41.7463 23.1941 41.802 23.0642 41.8911 22.9528C41.9876 22.834 42.1064 22.7597 42.2475 22.73C42.396 22.6929 42.5594 22.7189 42.7376 22.808C43.0421 22.9788 43.3725 23.105 43.7289 23.1867C44.0928 23.2684 44.4529 23.3092 44.8093 23.3092C45.3514 23.3092 45.7375 23.2275 45.9677 23.0642C46.1979 22.8934 46.313 22.6818 46.313 22.4293C46.313 22.214 46.2313 22.0432 46.068 21.9169C45.9046 21.7907 45.6187 21.683 45.2103 21.5939L43.9517 21.3266C43.2388 21.1781 42.7079 20.9256 42.3589 20.5692C42.0173 20.2054 41.8466 19.7301 41.8466 19.1435C41.8466 18.7722 41.9245 18.4344 42.0805 18.1299C42.2364 17.8255 42.4554 17.5619 42.7376 17.3391C43.0198 17.1163 43.3539 16.9456 43.7401 16.8268C44.1336 16.7079 44.5643 16.6485 45.0321 16.6485C45.4479 16.6485 45.8563 16.7005 46.2573 16.8045C46.6583 16.901 47.011 17.0458 47.3154 17.2389C47.4639 17.328 47.5642 17.4431 47.6162 17.5842C47.6756 17.7178 47.6941 17.8552 47.6719 17.9963C47.657 18.1299 47.6013 18.2487 47.5048 18.3527C47.4157 18.4567 47.3006 18.5235 47.1595 18.5532C47.0184 18.5829 46.8476 18.5495 46.6471 18.4529C46.4021 18.3267 46.1422 18.2339 45.8675 18.1745C45.5927 18.1151 45.3106 18.0854 45.021 18.0854C44.7091 18.0854 44.4418 18.1262 44.219 18.2079C44.0037 18.2896 43.8366 18.4047 43.7178 18.5532C43.6064 18.7017 43.5507 18.8725 43.5507 19.0655C43.5507 19.2809 43.6287 19.4554 43.7846 19.589C43.9405 19.7227 44.2116 19.8304 44.5977 19.9121L45.8563 20.1794C46.584 20.3353 47.1261 20.5878 47.4825 20.9368C47.8389 21.2783 48.0171 21.7313 48.0171 22.2956C48.0171 22.6669 47.9429 23.0048 47.7944 23.3092C47.6459 23.6062 47.4305 23.8624 47.1484 24.0778C46.8662 24.2931 46.5283 24.4602 46.1348 24.579C45.7412 24.6904 45.2994 24.7461 44.8093 24.7461ZM52.3235 24.7461C51.7294 24.7461 51.2097 24.631 50.7641 24.4008C50.326 24.1632 49.9882 23.829 49.7505 23.3983C49.5129 22.9676 49.3941 22.459 49.3941 21.8724C49.3941 21.4343 49.4609 21.0407 49.5946 20.6917C49.7283 20.3427 49.9213 20.0457 50.1738 19.8007C50.4337 19.5556 50.7456 19.37 51.1094 19.2438C51.4733 19.1101 51.8779 19.0433 52.3235 19.0433C52.5537 19.0433 52.7987 19.073 53.0586 19.1324C53.3185 19.1844 53.5747 19.2772 53.8271 19.4108C53.9757 19.4777 54.0759 19.5742 54.1279 19.7004C54.1873 19.8192 54.2096 19.9455 54.1947 20.0791C54.1799 20.2054 54.1316 20.3205 54.0499 20.4244C53.9757 20.5209 53.8791 20.5878 53.7603 20.6249C53.6415 20.6546 53.5078 20.6323 53.3593 20.5581C53.2183 20.4764 53.0697 20.417 52.9138 20.3799C52.7653 20.3427 52.6242 20.3242 52.4906 20.3242C52.2678 20.3242 52.071 20.3613 51.9002 20.4355C51.7294 20.5024 51.5846 20.6026 51.4658 20.7363C51.3544 20.8625 51.2653 21.0222 51.1985 21.2152C51.1391 21.4083 51.1094 21.6311 51.1094 21.8835C51.1094 22.3736 51.2282 22.7597 51.4658 23.0419C51.7109 23.3166 52.0524 23.454 52.4906 23.454C52.6242 23.454 52.7653 23.4392 52.9138 23.4095C53.0623 23.3723 53.2108 23.3129 53.3593 23.2313C53.5078 23.157 53.6415 23.1384 53.7603 23.1756C53.8791 23.2127 53.9719 23.2832 54.0388 23.3872C54.113 23.4837 54.1539 23.5988 54.1613 23.7325C54.1761 23.8587 54.1539 23.9849 54.0945 24.1112C54.0425 24.23 53.946 24.3228 53.8049 24.3896C53.5524 24.5159 53.2999 24.605 53.0475 24.6569C52.795 24.7164 52.5537 24.7461 52.3235 24.7461ZM56.4952 24.7126C56.2204 24.7126 56.0088 24.6347 55.8603 24.4787C55.7192 24.3154 55.6487 24.0889 55.6487 23.7993V19.99C55.6487 19.693 55.7192 19.4665 55.8603 19.3106C56.0088 19.1472 56.2204 19.0655 56.4952 19.0655C56.7625 19.0655 56.9667 19.1472 57.1078 19.3106C57.2563 19.4665 57.3306 19.693 57.3306 19.99V23.7993C57.3306 24.0889 57.26 24.3154 57.1189 24.4787C56.9778 24.6347 56.7699 24.7126 56.4952 24.7126ZM56.4952 18.1522C56.1833 18.1522 55.942 18.0817 55.7712 17.9406C55.6078 17.7921 55.5262 17.5842 55.5262 17.3168C55.5262 17.0421 55.6078 16.8342 55.7712 16.6931C55.942 16.5446 56.1833 16.4703 56.4952 16.4703C56.8071 16.4703 57.0447 16.5446 57.208 16.6931C57.3714 16.8342 57.4531 17.0421 57.4531 17.3168C57.4531 17.5842 57.3714 17.7921 57.208 17.9406C57.0447 18.0817 56.8071 18.1522 56.4952 18.1522ZM62.1376 24.7461C61.4916 24.7461 60.9347 24.631 60.4669 24.4008C60.0065 24.1632 59.65 23.8327 59.3976 23.4095C59.1525 22.9788 59.03 22.4739 59.03 21.8947C59.03 21.3303 59.1488 20.8365 59.3864 20.4133C59.6241 19.9826 59.9545 19.6484 60.3777 19.4108C60.8084 19.1658 61.2948 19.0433 61.8369 19.0433C62.2304 19.0433 62.5868 19.1101 62.9061 19.2438C63.2254 19.37 63.5002 19.5556 63.7304 19.8007C63.9606 20.0383 64.1351 20.3316 64.2539 20.6806C64.3727 21.0222 64.4321 21.4046 64.4321 21.8278C64.4321 21.9689 64.3875 22.0766 64.2984 22.1508C64.2093 22.2177 64.0794 22.2511 63.9086 22.2511H60.4112V21.3823H63.218L63.0398 21.5382C63.0398 21.2338 62.9952 20.9813 62.9061 20.7808C62.817 20.5729 62.6871 20.417 62.5163 20.313C62.3529 20.2091 62.1487 20.1571 61.9037 20.1571C61.6289 20.1571 61.395 20.2202 61.202 20.3464C61.0089 20.4727 60.8604 20.6546 60.7564 20.8922C60.6525 21.1298 60.6005 21.4157 60.6005 21.7499V21.839C60.6005 22.4033 60.7305 22.8191 60.9903 23.0865C61.2577 23.3538 61.6512 23.4874 62.171 23.4874C62.3492 23.4874 62.5534 23.4652 62.7836 23.4206C63.0138 23.376 63.2291 23.3055 63.4296 23.209C63.6004 23.1273 63.7526 23.1013 63.8863 23.131C64.02 23.1533 64.1239 23.2127 64.1982 23.3092C64.2724 23.4058 64.3133 23.5171 64.3207 23.6434C64.3355 23.7696 64.3096 23.8958 64.2427 24.0221C64.1759 24.1409 64.0645 24.2411 63.9086 24.3228C63.6561 24.4639 63.3702 24.5678 63.0509 24.6347C62.7391 24.7089 62.4346 24.7461 62.1376 24.7461ZM66.9251 24.7238C66.6504 24.7238 66.4388 24.6495 66.2902 24.501C66.1492 24.3525 66.0786 24.1409 66.0786 23.8661V19.9121C66.0786 19.6373 66.1492 19.4294 66.2902 19.2883C66.4388 19.1398 66.643 19.0655 66.9029 19.0655C67.1702 19.0655 67.3744 19.1398 67.5155 19.2883C67.6565 19.4294 67.7271 19.6373 67.7271 19.9121V20.5469L67.6046 20.1794C67.7753 19.8155 68.0278 19.5371 68.362 19.344C68.7035 19.1435 69.0897 19.0433 69.5203 19.0433C69.9584 19.0433 70.3186 19.1287 70.6008 19.2994C70.8829 19.4628 71.0946 19.7153 71.2356 20.0568C71.3767 20.391 71.4473 20.818 71.4473 21.3377V23.8661C71.4473 24.1409 71.373 24.3525 71.2245 24.501C71.0834 24.6495 70.8755 24.7238 70.6008 24.7238C70.3334 24.7238 70.1255 24.6495 69.977 24.501C69.8359 24.3525 69.7654 24.1409 69.7654 23.8661V21.4157C69.7654 21.037 69.6948 20.766 69.5538 20.6026C69.4201 20.4318 69.2122 20.3464 68.93 20.3464C68.5736 20.3464 68.2877 20.4578 68.0724 20.6806C67.8645 20.9034 67.7605 21.2004 67.7605 21.5717V23.8661C67.7605 24.4379 67.482 24.7238 66.9251 24.7238ZM76.0332 24.7461C75.4391 24.7461 74.9194 24.631 74.4738 24.4008C74.0357 24.1632 73.6979 23.829 73.4602 23.3983C73.2226 22.9676 73.1038 22.459 73.1038 21.8724C73.1038 21.4343 73.1706 21.0407 73.3043 20.6917C73.438 20.3427 73.631 20.0457 73.8835 19.8007C74.1434 19.5556 74.4553 19.37 74.8191 19.2438C75.183 19.1101 75.5876 19.0433 76.0332 19.0433C76.2634 19.0433 76.5084 19.073 76.7683 19.1324C77.0282 19.1844 77.2844 19.2772 77.5368 19.4108C77.6854 19.4777 77.7856 19.5742 77.8376 19.7004C77.897 19.8192 77.9193 19.9455 77.9044 20.0791C77.8896 20.2054 77.8413 20.3205 77.7596 20.4244C77.6854 20.5209 77.5888 20.5878 77.47 20.6249C77.3512 20.6546 77.2175 20.6323 77.069 20.5581C76.928 20.4764 76.7794 20.417 76.6235 20.3799C76.475 20.3427 76.3339 20.3242 76.2003 20.3242C75.9775 20.3242 75.7807 20.3613 75.6099 20.4355C75.4391 20.5024 75.2943 20.6026 75.1755 20.7363C75.0642 20.8625 74.975 21.0222 74.9082 21.2152C74.8488 21.4083 74.8191 21.6311 74.8191 21.8835C74.8191 22.3736 74.9379 22.7597 75.1755 23.0419C75.4206 23.3166 75.7621 23.454 76.2003 23.454C76.3339 23.454 76.475 23.4392 76.6235 23.4095C76.772 23.3723 76.9205 23.3129 77.069 23.2313C77.2175 23.157 77.3512 23.1384 77.47 23.1756C77.5888 23.2127 77.6816 23.2832 77.7485 23.3872C77.8227 23.4837 77.8636 23.5988 77.871 23.7325C77.8858 23.8587 77.8636 23.9849 77.8042 24.1112C77.7522 24.23 77.6557 24.3228 77.5146 24.3896C77.2621 24.5159 77.0096 24.605 76.7572 24.6569C76.5047 24.7164 76.2634 24.7461 76.0332 24.7461ZM82.0899 24.7461C81.4439 24.7461 80.8869 24.631 80.4191 24.4008C79.9588 24.1632 79.6023 23.8327 79.3499 23.4095C79.1048 22.9788 78.9823 22.4739 78.9823 21.8947C78.9823 21.3303 79.1011 20.8365 79.3387 20.4133C79.5763 19.9826 79.9068 19.6484 80.33 19.4108C80.7607 19.1658 81.2471 19.0433 81.7891 19.0433C82.1827 19.0433 82.5391 19.1101 82.8584 19.2438C83.1777 19.37 83.4525 19.5556 83.6826 19.8007C83.9128 20.0383 84.0873 20.3316 84.2061 20.6806C84.3249 21.0222 84.3844 21.4046 84.3844 21.8278C84.3844 21.9689 84.3398 22.0766 84.2507 22.1508C84.1616 22.2177 84.0316 22.2511 83.8609 22.2511H80.3634V21.3823H83.1703L82.9921 21.5382C82.9921 21.2338 82.9475 20.9813 82.8584 20.7808C82.7693 20.5729 82.6394 20.417 82.4686 20.313C82.3052 20.2091 82.101 20.1571 81.856 20.1571C81.5812 20.1571 81.3473 20.2202 81.1543 20.3464C80.9612 20.4727 80.8127 20.6546 80.7087 20.8922C80.6048 21.1298 80.5528 21.4157 80.5528 21.7499V21.839C80.5528 22.4033 80.6827 22.8191 80.9426 23.0865C81.2099 23.3538 81.6035 23.4874 82.1233 23.4874C82.3015 23.4874 82.5057 23.4652 82.7359 23.4206C82.9661 23.376 83.1814 23.3055 83.3819 23.209C83.5527 23.1273 83.7049 23.1013 83.8386 23.131C83.9722 23.1533 84.0762 23.2127 84.1504 23.3092C84.2247 23.4058 84.2655 23.5171 84.273 23.6434C84.2878 23.7696 84.2618 23.8958 84.195 24.0221C84.1282 24.1409 84.0168 24.2411 83.8609 24.3228C83.6084 24.4639 83.3225 24.5678 83.0032 24.6347C82.6913 24.7089 82.3869 24.7461 82.0899 24.7461Z" fill="#FF8686"/>
<path d="M27.5 9.15863C27.6588 9.31746 27.748 9.53285 27.748 9.75744C27.748 9.98203 27.6588 10.1974 27.5 10.3563L27.3772 10.4816L29.9537 13.0573V13.5993L29.354 13.6569L26.8224 11.1245C26.4379 11.6276 26.1957 12.1002 26.0542 12.5465L28.2597 14.7512V15.3992L27.6601 15.3509L25.8832 13.5722L25.8823 13.618C25.8713 14.6216 26.2465 15.6075 26.7267 16.7289L26.8529 17.0203C27.0164 17.3989 26.4777 18.2272 26.4777 18.2272L27.821 19.9212C27.8402 20.0426 27.8546 20.1642 27.8642 20.2862C27.9794 21.6498 27.5593 23.0016 26.2296 24.3314C24.8998 25.6611 23.5328 26.099 22.1506 26.0338C21.3256 25.9957 20.5075 25.7755 19.735 25.5154L18.855 25.85L17.7743 24.8167C16.8714 24.5135 16.0321 24.3043 15.186 24.3407C15.1215 24.3434 15.0571 24.3477 14.9928 24.3534L16.8257 26.1854L16.7376 26.7842H16.226L14.007 24.5651C13.6343 24.6956 13.2464 24.8895 12.8441 25.169L15.3426 27.6676V28.18L14.7438 28.2664L12.1758 25.6984C12.0623 25.8 11.9474 25.909 11.8311 26.0253C11.6714 26.1796 11.4574 26.265 11.2354 26.263C11.0133 26.2611 10.8009 26.172 10.6438 26.015C10.4868 25.858 10.3977 25.6455 10.3958 25.4235C10.3939 25.2014 10.4792 24.9874 10.6335 24.8277C12.1394 23.3218 13.6309 22.7111 15.114 22.6484C15.8229 22.6179 16.5089 22.7153 17.1611 22.872L18.008 22.4621C18.008 22.4621 19.0718 23.4785 19.0879 23.4835L19.3031 23.5623C20.2237 23.8986 21.0199 24.1891 21.7881 24.2992L20.25 22.7619V22.1623H20.8488L22.9848 24.2983C23.4718 24.2136 23.969 24.0095 24.4882 23.6123L21.9439 21.068L21.8905 20.4683H22.5427L25.1183 23.0448C25.6773 22.4646 25.9712 21.9268 26.1025 21.4152L23.8496 19.1623V18.5635H24.4484L26.1601 20.2752C26.1055 19.8838 26.0101 19.4991 25.8755 19.1275L26.1601 17.7046L25.17 17.3963C24.6974 16.2944 24.1731 15.0036 24.1884 13.5993C24.2045 12.1374 24.7973 10.6637 26.3024 9.15863C26.4612 8.99984 26.6766 8.91064 26.9012 8.91064C27.1258 8.91064 27.3412 8.99984 27.5 9.15863Z" fill="#FFC2C2"/>
<path d="M29.3549 13.6568L31.8882 16.1901C31.3936 16.5721 30.9277 16.8228 30.4865 16.9778L28.259 14.7519L27.6601 15.3507L29.4981 17.1878L29.3651 17.1963C28.3564 17.2403 27.3688 16.9083 26.2499 16.4831L25.9594 16.3713C24.9685 15.9902 23.8446 15.5574 22.6935 15.5015C21.3409 15.4363 20.0019 15.8826 18.6789 17.2039C17.3644 18.5193 16.8935 19.8465 16.9096 21.1881C16.9164 21.759 17.0138 22.3239 17.151 22.8694C17.8192 23.0294 18.4519 23.2522 19.0389 23.4656L19.1015 23.4885C18.8237 22.6415 18.612 21.9038 18.6035 21.1678V21.1153L20.25 22.7618L20.8488 22.163L18.767 20.0811C18.9127 19.6449 19.1685 19.1918 19.5877 18.7115L21.9431 21.0678L22.5428 20.469L20.1874 18.1136C20.8023 17.5783 21.3731 17.3242 21.9194 17.2327L23.8488 19.1621L24.4484 18.5633L23.1382 17.2531C23.8352 17.3725 24.5577 17.6494 25.3971 17.9704H25.3996L25.6469 18.0661C26.7514 18.4862 28.0404 18.9495 29.4396 18.8877C30.8896 18.8242 32.3523 18.2084 33.8523 16.7084C34.0066 16.5487 34.092 16.3348 34.09 16.1127C34.0881 15.8906 33.999 15.6782 33.842 15.5211C33.685 15.3641 33.4725 15.275 33.2505 15.2731C33.0284 15.2712 32.8145 15.3565 32.6547 15.5108L32.5294 15.6336L29.9537 13.0571L29.3549 13.6568ZM18.8551 25.4264L18.0361 25.7093C18.2275 26.3877 18.3486 27.0331 18.3249 27.6853L16.8257 26.1861L16.2261 26.7849L18.1572 28.716C18.0274 29.1419 17.8384 29.5473 17.5956 29.9204L15.3427 27.6675L14.7439 28.2671L17.0866 30.609C16.9308 30.7954 16.7557 30.9856 16.5615 31.1799C16.4829 31.2586 16.4205 31.352 16.3779 31.4548C16.3354 31.5576 16.3135 31.6677 16.3136 31.779C16.3136 31.8902 16.3356 32.0004 16.3782 32.1032C16.4208 32.2059 16.4832 32.2993 16.5619 32.3779C16.6406 32.4566 16.734 32.5189 16.8368 32.5615C16.9396 32.604 17.0498 32.6259 17.161 32.6258C17.2723 32.6258 17.3824 32.6039 17.4852 32.5612C17.5879 32.5186 17.6813 32.4562 17.7599 32.3775C19.2548 30.8826 19.8935 29.43 20.0044 27.9927C20.0373 27.5313 20.0217 27.0677 19.9578 26.6096L18.8551 25.4264Z" fill="#84C4FF"/>
<path d="M17.7563 24.8105C17.8625 25.1251 17.9576 25.4317 18.0418 25.7304C18.5855 26.1115 19.269 26.485 19.961 26.6315C19.9098 26.2558 19.8357 25.8836 19.7391 25.5169C19.4045 25.4043 19.0785 25.2849 18.7634 25.1697C18.6618 25.1313 18.5604 25.094 18.4593 25.0579C18.226 24.9725 17.9917 24.89 17.7563 24.8105Z" fill="#ADE2FF"/>
<path d="M25.4207 17.9795L25.6468 18.0659C26.2219 18.2861 26.8469 18.5156 27.511 18.6782C27.649 19.0933 27.7617 19.5193 27.8252 19.9504C27.3187 19.5523 26.4599 19.2703 25.8763 19.1288C25.7372 18.7408 25.5852 18.3575 25.4207 17.9795Z" fill="#FF6195"/>
</g>
<rect x="1.11383" y="1.11383" width="148.51" height="38.9839" rx="7.79678" stroke="#888888" stroke-opacity="0.6" stroke-width="2.22765"/>
<defs>
<clipPath id="clip0_61_369">
<rect width="150.738" height="41.2116" rx="8.91061" fill="white"/>
</clipPath>
</defs>
</svg>
