<svg width="151" height="42" viewBox="0 0 151 42" fill="none" xmlns="http://www.w3.org/2000/svg">
<g clip-path="url(#clip0_61_353)">
<rect width="150.738" height="41.2116" rx="8.91061" fill="#3A3A3A" fill-opacity="0.9"/>
<path d="M42.9047 24.624C42.6151 24.624 42.3923 24.5461 42.2364 24.3901C42.0805 24.2342 42.0025 24.0114 42.0025 23.7218V17.6737C42.0025 17.3842 42.0805 17.1614 42.2364 17.0055C42.3923 16.8495 42.6151 16.7715 42.9047 16.7715H45.0766C46.4207 16.7715 47.4565 17.1131 48.1842 17.7963C48.9193 18.472 49.2869 19.4373 49.2869 20.6922C49.2869 21.3234 49.1904 21.884 48.9973 22.3741C48.8117 22.8568 48.5406 23.2652 48.1842 23.5993C47.8278 23.9335 47.3897 24.1896 46.8699 24.3678C46.3501 24.5386 45.7524 24.624 45.0766 24.624H42.9047ZM43.7289 23.2095H44.9764C45.3997 23.2095 45.7672 23.1575 46.0791 23.0535C46.391 22.9496 46.6509 22.7936 46.8588 22.5857C47.0667 22.3778 47.2226 22.1179 47.3266 21.806C47.4305 21.4867 47.4825 21.1155 47.4825 20.6922C47.4825 19.8457 47.2709 19.2183 46.8476 18.8099C46.4318 18.394 45.8081 18.1861 44.9764 18.1861H43.7289V23.2095ZM51.9981 24.7131C51.7234 24.7131 51.5117 24.6352 51.3632 24.4792C51.2222 24.3159 51.1516 24.0894 51.1516 23.7998V19.9905C51.1516 19.6935 51.2222 19.467 51.3632 19.3111C51.5117 19.1477 51.7234 19.066 51.9981 19.066C52.2654 19.066 52.4696 19.1477 52.6107 19.3111C52.7592 19.467 52.8335 19.6935 52.8335 19.9905V23.7998C52.8335 24.0894 52.7629 24.3159 52.6219 24.4792C52.4808 24.6352 52.2729 24.7131 51.9981 24.7131ZM51.9981 18.1527C51.6862 18.1527 51.4449 18.0822 51.2741 17.9411C51.1108 17.7926 51.0291 17.5846 51.0291 17.3173C51.0291 17.0426 51.1108 16.8347 51.2741 16.6936C51.4449 16.5451 51.6862 16.4708 51.9981 16.4708C52.31 16.4708 52.5476 16.5451 52.711 16.6936C52.8743 16.8347 52.956 17.0426 52.956 17.3173C52.956 17.5846 52.8743 17.7926 52.711 17.9411C52.5476 18.0822 52.31 18.1527 51.9981 18.1527ZM56.6492 24.7465C56.2482 24.7465 55.8881 24.6686 55.5688 24.5126C55.2495 24.3567 55.0007 24.1451 54.8225 23.8778C54.6443 23.6104 54.5552 23.3097 54.5552 22.9756C54.5552 22.5746 54.6592 22.259 54.8671 22.0288C55.075 21.7912 55.4129 21.6241 55.8807 21.5276C56.3485 21.4236 56.9685 21.3717 57.7408 21.3717H58.3311V22.2404H57.7519C57.3732 22.2404 57.065 22.2627 56.8274 22.3073C56.5972 22.3444 56.4302 22.4112 56.3262 22.5078C56.2297 22.6043 56.1814 22.7379 56.1814 22.9087C56.1814 23.1166 56.2519 23.2874 56.393 23.4211C56.5415 23.5548 56.7532 23.6216 57.0279 23.6216C57.2433 23.6216 57.4326 23.5733 57.596 23.4768C57.7668 23.3728 57.9004 23.2355 57.9969 23.0647C58.0935 22.8865 58.1417 22.686 58.1417 22.4632V21.1823C58.1417 20.8556 58.0675 20.6254 57.919 20.4917C57.7705 20.3506 57.518 20.2801 57.1616 20.2801C56.9611 20.2801 56.742 20.3061 56.5044 20.3581C56.2742 20.4026 56.018 20.4806 55.7359 20.592C55.5725 20.6662 55.4277 20.6848 55.3015 20.6477C55.1752 20.6031 55.0787 20.5289 55.0119 20.4249C54.9451 20.3135 54.9116 20.1947 54.9116 20.0685C54.9116 19.9348 54.9488 19.8086 55.023 19.6898C55.0973 19.5635 55.2198 19.4707 55.3906 19.4113C55.7396 19.2702 56.0663 19.1737 56.3708 19.1217C56.6826 19.0697 56.9685 19.0438 57.2284 19.0438C57.8002 19.0438 58.268 19.1291 58.6318 19.2999C59.0031 19.4633 59.2816 19.7195 59.4672 20.0685C59.6528 20.41 59.7456 20.8519 59.7456 21.3939V23.8666C59.7456 24.1414 59.6788 24.353 59.5452 24.5015C59.4115 24.65 59.2184 24.7243 58.966 24.7243C58.7135 24.7243 58.5167 24.65 58.3756 24.5015C58.242 24.353 58.1752 24.1414 58.1752 23.8666V23.4545L58.2531 23.5213C58.2086 23.7738 58.112 23.9929 57.9635 24.1785C57.8224 24.3567 57.6405 24.4978 57.4178 24.6017C57.195 24.6983 56.9388 24.7465 56.6492 24.7465ZM64.2972 26.7514C63.8962 26.7514 63.5101 26.718 63.1388 26.6512C62.775 26.5844 62.452 26.4841 62.1698 26.3505C61.999 26.2762 61.8765 26.1797 61.8022 26.0609C61.7354 25.9421 61.7057 25.8158 61.7131 25.6822C61.728 25.5485 61.7725 25.4297 61.8468 25.3257C61.9285 25.2218 62.0287 25.1475 62.1475 25.103C62.2663 25.0658 62.3926 25.077 62.5262 25.1364C62.8529 25.2849 63.1537 25.3814 63.4284 25.426C63.7106 25.4705 63.9519 25.4928 64.1524 25.4928C64.6276 25.4928 64.9841 25.3851 65.2217 25.1698C65.4593 24.9545 65.5781 24.624 65.5781 24.1785V23.332H65.6783C65.567 23.6736 65.3368 23.952 64.9878 24.1674C64.6388 24.3827 64.2526 24.4904 63.8294 24.4904C63.3393 24.4904 62.9123 24.379 62.5485 24.1562C62.1846 23.926 61.9025 23.6067 61.702 23.1983C61.5015 22.7825 61.4012 22.3036 61.4012 21.7615C61.4012 21.3531 61.4569 20.9818 61.5683 20.6477C61.6871 20.3135 61.8505 20.0276 62.0584 19.79C62.2737 19.5524 62.5299 19.3705 62.8269 19.2442C63.1314 19.1106 63.4655 19.0438 63.8294 19.0438C64.2675 19.0438 64.6536 19.1514 64.9878 19.3668C65.3293 19.5747 65.5558 19.8494 65.6672 20.191L65.5558 20.5474V19.9125C65.5558 19.6378 65.6264 19.4299 65.7674 19.2888C65.916 19.1403 66.1239 19.066 66.3912 19.066C66.6585 19.066 66.8627 19.1403 67.0038 19.2888C67.1449 19.4299 67.2154 19.6378 67.2154 19.9125V23.9891C67.2154 24.9025 66.963 25.5893 66.458 26.0497C65.9605 26.5175 65.2402 26.7514 64.2972 26.7514ZM64.3306 23.2317C64.5831 23.2317 64.7984 23.1723 64.9766 23.0535C65.1623 22.9347 65.3071 22.7676 65.411 22.5523C65.515 22.3295 65.567 22.0659 65.567 21.7615C65.567 21.3011 65.4519 20.9447 65.2217 20.6922C64.9989 20.4323 64.7019 20.3024 64.3306 20.3024C64.0781 20.3024 63.8591 20.3618 63.6735 20.4806C63.4878 20.592 63.343 20.759 63.2391 20.9818C63.1425 21.1972 63.0943 21.457 63.0943 21.7615C63.0943 22.2219 63.2056 22.582 63.4284 22.8419C63.6512 23.1018 63.9519 23.2317 64.3306 23.2317ZM70.036 24.7243C69.7613 24.7243 69.5496 24.65 69.4011 24.5015C69.26 24.353 69.1895 24.1414 69.1895 23.8666V19.9125C69.1895 19.6378 69.26 19.4299 69.4011 19.2888C69.5496 19.1403 69.7538 19.066 70.0137 19.066C70.2811 19.066 70.4853 19.1403 70.6263 19.2888C70.7674 19.4299 70.838 19.6378 70.838 19.9125V20.5474L70.7154 20.1799C70.8862 19.816 71.1387 19.5376 71.4728 19.3445C71.8144 19.144 72.2005 19.0438 72.6312 19.0438C73.0693 19.0438 73.4295 19.1291 73.7116 19.2999C73.9938 19.4633 74.2054 19.7158 74.3465 20.0573C74.4876 20.3915 74.5581 20.8185 74.5581 21.3382V23.8666C74.5581 24.1414 74.4839 24.353 74.3354 24.5015C74.1943 24.65 73.9864 24.7243 73.7116 24.7243C73.4443 24.7243 73.2364 24.65 73.0879 24.5015C72.9468 24.353 72.8763 24.1414 72.8763 23.8666V21.4162C72.8763 21.0375 72.8057 20.7665 72.6646 20.6031C72.531 20.4323 72.3231 20.3469 72.0409 20.3469C71.6845 20.3469 71.3986 20.4583 71.1832 20.6811C70.9753 20.9038 70.8714 21.2009 70.8714 21.5721V23.8666C70.8714 24.4384 70.5929 24.7243 70.036 24.7243ZM79.1106 24.7465C78.524 24.7465 78.0117 24.6314 77.5736 24.4013C77.1429 24.1711 76.8087 23.8406 76.5711 23.41C76.3335 22.9793 76.2147 22.4706 76.2147 21.884C76.2147 21.4459 76.2815 21.0524 76.4152 20.7034C76.5488 20.3544 76.7419 20.0573 76.9944 19.8123C77.2543 19.5598 77.5624 19.3705 77.9189 19.2442C78.2753 19.1106 78.6725 19.0438 79.1106 19.0438C79.6973 19.0438 80.2059 19.1588 80.6366 19.389C81.0747 19.6192 81.4126 19.946 81.6502 20.3692C81.8952 20.7925 82.0177 21.2974 82.0177 21.884C82.0177 22.3295 81.9472 22.7268 81.8061 23.0758C81.6724 23.4248 81.4794 23.7255 81.2269 23.978C80.9744 24.2305 80.6663 24.4235 80.3024 24.5572C79.946 24.6834 79.5488 24.7465 79.1106 24.7465ZM79.1106 23.4879C79.3557 23.4879 79.5673 23.4285 79.7455 23.3097C79.9237 23.1909 80.0648 23.0164 80.1688 22.7862C80.2727 22.5486 80.3247 22.2479 80.3247 21.884C80.3247 21.3419 80.2133 20.9447 79.9906 20.6922C79.7678 20.4323 79.4745 20.3024 79.1106 20.3024C78.873 20.3024 78.6614 20.3581 78.4758 20.4695C78.2976 20.5808 78.1565 20.7553 78.0525 20.993C77.956 21.2231 77.9077 21.5202 77.9077 21.884C77.9077 22.4261 78.0191 22.8308 78.2419 23.0981C78.4646 23.358 78.7542 23.4879 79.1106 23.4879ZM85.8033 24.7465C85.4765 24.7465 85.1387 24.7168 84.7897 24.6574C84.4481 24.598 84.1362 24.4978 83.8541 24.3567C83.7056 24.2825 83.5979 24.1896 83.5311 24.0782C83.4717 23.9594 83.4457 23.8406 83.4531 23.7218C83.4605 23.603 83.4976 23.4953 83.5645 23.3988C83.6387 23.3023 83.7315 23.2392 83.8429 23.2095C83.9617 23.1723 84.0917 23.1835 84.2328 23.2429C84.5372 23.3691 84.8157 23.4582 85.0681 23.5102C85.3206 23.5622 85.5694 23.5882 85.8144 23.5882C86.1337 23.5882 86.3639 23.5399 86.505 23.4434C86.6535 23.3394 86.7277 23.2058 86.7277 23.0424C86.7277 22.8939 86.6795 22.7825 86.5829 22.7082C86.4864 22.634 86.3453 22.582 86.1597 22.5523L84.9902 22.3407C84.5298 22.259 84.1734 22.0919 83.9209 21.8395C83.6759 21.5796 83.5533 21.2491 83.5533 20.8482C83.5533 20.4769 83.6573 20.1576 83.8652 19.8903C84.0731 19.6155 84.359 19.4076 84.7228 19.2665C85.0941 19.118 85.5137 19.0438 85.9815 19.0438C86.3156 19.0438 86.6238 19.0735 86.9059 19.1329C87.1881 19.1923 87.4591 19.2888 87.719 19.4225C87.8527 19.4893 87.9455 19.5784 87.9975 19.6898C88.0569 19.8012 88.0755 19.9163 88.0532 20.0351C88.0383 20.1539 87.9938 20.2615 87.9195 20.3581C87.8453 20.4546 87.7487 20.5177 87.6299 20.5474C87.5186 20.5771 87.3886 20.5623 87.2401 20.5029C87.0025 20.3915 86.7834 20.3135 86.5829 20.269C86.3824 20.217 86.1894 20.191 86.0037 20.191C85.6696 20.191 85.4283 20.2467 85.2798 20.3581C85.1313 20.462 85.057 20.5957 85.057 20.759C85.057 20.8853 85.0978 20.993 85.1795 21.0821C85.2686 21.1637 85.4023 21.2194 85.5805 21.2491L86.75 21.4608C87.2327 21.5424 87.6002 21.7058 87.8527 21.9508C88.1052 22.1885 88.2314 22.5152 88.2314 22.931C88.2314 23.4953 88.0086 23.9409 87.5631 24.2676C87.125 24.5869 86.5384 24.7465 85.8033 24.7465ZM92.4896 24.7465C91.9773 24.7465 91.5466 24.6612 91.1976 24.4904C90.856 24.3196 90.5998 24.0708 90.429 23.7441C90.2657 23.4174 90.184 23.0053 90.184 22.5078V20.4138H89.7162C89.5083 20.4138 89.3449 20.3581 89.2261 20.2467C89.1147 20.1353 89.059 19.9831 89.059 19.79C89.059 19.5821 89.1147 19.4262 89.2261 19.3222C89.3449 19.2108 89.5083 19.1551 89.7162 19.1551H90.184V18.3086C90.184 18.0265 90.2582 17.8148 90.4068 17.6737C90.5553 17.5252 90.7632 17.451 91.0305 17.451C91.3052 17.451 91.5132 17.5252 91.6542 17.6737C91.7953 17.8148 91.8659 18.0265 91.8659 18.3086V19.1551H92.924C93.1319 19.1551 93.2916 19.2108 93.4029 19.3222C93.5143 19.4262 93.57 19.5821 93.57 19.79C93.57 19.9831 93.5143 20.1353 93.4029 20.2467C93.2916 20.3581 93.1319 20.4138 92.924 20.4138H91.8659V22.4409C91.8659 22.7528 91.9364 22.9867 92.0775 23.1426C92.226 23.2986 92.4599 23.3765 92.7792 23.3765C92.8906 23.3765 92.9945 23.3654 93.0911 23.3431C93.1876 23.3208 93.2767 23.306 93.3584 23.2986C93.4624 23.2911 93.5477 23.3246 93.6146 23.3988C93.6814 23.4656 93.7148 23.6179 93.7148 23.8555C93.7148 24.0337 93.6851 24.1896 93.6257 24.3233C93.5663 24.4569 93.4624 24.5535 93.3138 24.6129C93.2173 24.65 93.0837 24.6797 92.9129 24.702C92.7495 24.7317 92.6084 24.7465 92.4896 24.7465ZM95.9973 24.7131C95.7226 24.7131 95.5109 24.6352 95.3624 24.4792C95.2213 24.3159 95.1508 24.0894 95.1508 23.7998V19.9905C95.1508 19.6935 95.2213 19.467 95.3624 19.3111C95.5109 19.1477 95.7226 19.066 95.9973 19.066C96.2646 19.066 96.4688 19.1477 96.6099 19.3111C96.7584 19.467 96.8327 19.6935 96.8327 19.9905V23.7998C96.8327 24.0894 96.7621 24.3159 96.621 24.4792C96.48 24.6352 96.272 24.7131 95.9973 24.7131ZM95.9973 18.1527C95.6854 18.1527 95.4441 18.0822 95.2733 17.9411C95.1099 17.7926 95.0283 17.5846 95.0283 17.3173C95.0283 17.0426 95.1099 16.8347 95.2733 16.6936C95.4441 16.5451 95.6854 16.4708 95.9973 16.4708C96.3092 16.4708 96.5468 16.5451 96.7101 16.6936C96.8735 16.8347 96.9552 17.0426 96.9552 17.3173C96.9552 17.5846 96.8735 17.7926 96.7101 17.9411C96.5468 18.0822 96.3092 18.1527 95.9973 18.1527ZM101.461 24.7465C100.867 24.7465 100.348 24.6314 99.9021 24.4013C99.464 24.1636 99.1262 23.8295 98.8885 23.3988C98.6509 22.9681 98.5321 22.4595 98.5321 21.8729C98.5321 21.4348 98.5989 21.0412 98.7326 20.6922C98.8663 20.3432 99.0593 20.0462 99.3118 19.8012C99.5717 19.5561 99.8836 19.3705 100.247 19.2442C100.611 19.1106 101.016 19.0438 101.461 19.0438C101.692 19.0438 101.937 19.0735 102.197 19.1329C102.456 19.1848 102.713 19.2777 102.965 19.4113C103.114 19.4781 103.214 19.5747 103.266 19.7009C103.325 19.8197 103.348 19.946 103.333 20.0796C103.318 20.2058 103.27 20.3209 103.188 20.4249C103.114 20.5214 103.017 20.5883 102.898 20.6254C102.78 20.6551 102.646 20.6328 102.497 20.5586C102.356 20.4769 102.208 20.4175 102.052 20.3803C101.903 20.3432 101.762 20.3247 101.629 20.3247C101.406 20.3247 101.209 20.3618 101.038 20.436C100.867 20.5029 100.723 20.6031 100.604 20.7368C100.492 20.863 100.403 21.0227 100.337 21.2157C100.277 21.4088 100.247 21.6315 100.247 21.884C100.247 22.3741 100.366 22.7602 100.604 23.0424C100.849 23.3171 101.19 23.4545 101.629 23.4545C101.762 23.4545 101.903 23.4397 102.052 23.41C102.2 23.3728 102.349 23.3134 102.497 23.2317C102.646 23.1575 102.78 23.1389 102.898 23.176C103.017 23.2132 103.11 23.2837 103.177 23.3877C103.251 23.4842 103.292 23.5993 103.299 23.733C103.314 23.8592 103.292 23.9854 103.232 24.1117C103.18 24.2305 103.084 24.3233 102.943 24.3901C102.69 24.5164 102.438 24.6055 102.185 24.6574C101.933 24.7168 101.692 24.7465 101.461 24.7465ZM106.881 24.7465C106.554 24.7465 106.216 24.7168 105.867 24.6574C105.526 24.598 105.214 24.4978 104.931 24.3567C104.783 24.2825 104.675 24.1896 104.608 24.0782C104.549 23.9594 104.523 23.8406 104.531 23.7218C104.538 23.603 104.575 23.4953 104.642 23.3988C104.716 23.3023 104.809 23.2392 104.92 23.2095C105.039 23.1723 105.169 23.1835 105.31 23.2429C105.615 23.3691 105.893 23.4582 106.146 23.5102C106.398 23.5622 106.647 23.5882 106.892 23.5882C107.211 23.5882 107.441 23.5399 107.582 23.4434C107.731 23.3394 107.805 23.2058 107.805 23.0424C107.805 22.8939 107.757 22.7825 107.66 22.7082C107.564 22.634 107.423 22.582 107.237 22.5523L106.068 22.3407C105.607 22.259 105.251 22.0919 104.998 21.8395C104.753 21.5796 104.631 21.2491 104.631 20.8482C104.631 20.4769 104.735 20.1576 104.943 19.8903C105.151 19.6155 105.436 19.4076 105.8 19.2665C106.172 19.118 106.591 19.0438 107.059 19.0438C107.393 19.0438 107.701 19.0735 107.983 19.1329C108.266 19.1923 108.537 19.2888 108.796 19.4225C108.93 19.4893 109.023 19.5784 109.075 19.6898C109.134 19.8012 109.153 19.9163 109.131 20.0351C109.116 20.1539 109.071 20.2615 108.997 20.3581C108.923 20.4546 108.826 20.5177 108.707 20.5474C108.596 20.5771 108.466 20.5623 108.318 20.5029C108.08 20.3915 107.861 20.3135 107.66 20.269C107.46 20.217 107.267 20.191 107.081 20.191C106.747 20.191 106.506 20.2467 106.357 20.3581C106.209 20.462 106.134 20.5957 106.134 20.759C106.134 20.8853 106.175 20.993 106.257 21.0821C106.346 21.1637 106.48 21.2194 106.658 21.2491L107.827 21.4608C108.31 21.5424 108.678 21.7058 108.93 21.9508C109.183 22.1885 109.309 22.5152 109.309 22.931C109.309 23.4953 109.086 23.9409 108.641 24.2676C108.202 24.5869 107.616 24.7465 106.881 24.7465Z" fill="#89E5A0"/>
<path fill-rule="evenodd" clip-rule="evenodd" d="M22.6746 9.63286C22.4501 9.40835 22.1456 9.28223 21.8281 9.28223C21.5106 9.28223 21.2061 9.40835 20.9816 9.63286C20.7571 9.85737 20.6309 10.1619 20.6309 10.4794C20.6309 10.7969 20.7571 11.1014 20.9816 11.3259L22.0657 12.407H21.8266C19.9327 12.4073 18.0815 12.9692 16.5069 14.0216C14.9324 15.0739 13.7052 16.5696 12.9807 18.3194C12.2561 20.0692 12.0667 21.9945 12.4364 23.8519C12.806 25.7094 13.7182 27.4155 15.0574 28.7546C16.3967 30.0936 18.103 31.0055 19.9605 31.3749C21.818 31.7442 23.7433 31.5545 25.4929 30.8297C27.2426 30.1049 28.7381 28.8775 29.7902 27.3028C30.8424 25.7281 31.4039 23.8767 31.4039 21.9829C31.4039 21.6654 31.2778 21.361 31.0533 21.1365C30.8289 20.912 30.5244 20.7859 30.2069 20.7859C29.8895 20.7859 29.585 20.912 29.3606 21.1365C29.1361 21.361 29.01 21.6654 29.01 21.9829C29.01 23.4037 28.5886 24.7926 27.7992 25.9739C27.0099 27.1552 25.8879 28.076 24.5752 28.6196C23.2625 29.1633 21.8181 29.3054 20.4246 29.0281C19.0311 28.7508 17.7512 28.0665 16.7466 27.0618C15.7421 26.057 15.058 24.7769 14.781 23.3834C14.504 21.9898 14.6465 20.5455 15.1904 19.2329C15.7343 17.9203 16.6553 16.7985 17.8368 16.0094C19.0183 15.2202 20.4073 14.7992 21.8281 14.7995H22.1964L20.9816 16.0143C20.7571 16.2388 20.6309 16.5433 20.6309 16.8608C20.6309 17.1783 20.7571 17.4828 20.9816 17.7073C21.2061 17.9318 21.5106 18.0579 21.8281 18.0579C22.1456 18.0579 22.4501 17.9318 22.6746 17.7073L25.8645 14.5158C25.9757 14.4047 26.0639 14.2727 26.1241 14.1275C26.1843 13.9822 26.2152 13.8266 26.2152 13.6693C26.2152 13.5121 26.1843 13.3564 26.1241 13.2112C26.0639 13.066 25.9757 12.934 25.8645 12.8228L22.6746 9.63286Z" fill="url(#paint0_linear_61_353)"/>
<path fill-rule="evenodd" clip-rule="evenodd" d="M27.1877 17.9137C27.2988 18.0248 27.387 18.1568 27.4472 18.302C27.5074 18.4473 27.5384 18.603 27.5384 18.7602C27.5384 18.9174 27.5074 19.0731 27.4472 19.2183C27.387 19.3636 27.2988 19.4955 27.1877 19.6067L22.0314 24.7614C21.9203 24.8726 21.7883 24.9608 21.6431 25.021C21.4978 25.0812 21.3421 25.1121 21.1849 25.1121C21.0277 25.1121 20.872 25.0812 20.7268 25.021C20.5815 24.9608 20.4496 24.8726 20.3384 24.7614L18.4048 22.8278C18.2937 22.7167 18.2055 22.5847 18.1453 22.4395C18.0852 22.2942 18.0542 22.1386 18.0542 21.9813C18.0542 21.6638 18.1803 21.3594 18.4048 21.1348C18.6293 20.9103 18.9338 20.7842 19.2513 20.7842C19.5688 20.7842 19.8733 20.9103 20.0978 21.1348L21.1849 22.2234L25.4947 17.9137C25.6058 17.8025 25.7378 17.7143 25.883 17.6541C26.0283 17.594 26.1839 17.563 26.3412 17.563C26.4984 17.563 26.654 17.594 26.7993 17.6541C26.9445 17.7143 27.0765 17.8025 27.1877 17.9137Z" fill="#00FF63"/>
</g>
<rect x="1.11383" y="1.11383" width="148.51" height="38.9839" rx="7.79678" stroke="#888888" stroke-opacity="0.6" stroke-width="2.22765"/>
<defs>
<linearGradient id="paint0_linear_61_353" x1="12.2537" y1="11.1105" x2="18.7688" y2="35.1556" gradientUnits="userSpaceOnUse">
<stop stop-color="white"/>
<stop offset="1" stop-color="#2F9BF6"/>
</linearGradient>
<clipPath id="clip0_61_353">
<rect width="150.738" height="41.2116" rx="8.91061" fill="white"/>
</clipPath>
</defs>
</svg>
