<svg width="151" height="42" viewBox="0 0 151 42" fill="none" xmlns="http://www.w3.org/2000/svg">
<g clip-path="url(#clip0_61_331)">
<rect width="150.738" height="41.2116" rx="8.91061" fill="black" fill-opacity="0.2"/>
<path d="M42.8713 24.7238C42.5891 24.7238 42.3738 24.6458 42.2253 24.4899C42.0767 24.3339 42.0025 24.1149 42.0025 23.8327V17.5619C42.0025 17.2797 42.0767 17.0607 42.2253 16.9047C42.3738 16.7488 42.5891 16.6708 42.8713 16.6708C43.146 16.6708 43.3576 16.7488 43.5062 16.9047C43.6547 17.0607 43.7289 17.2797 43.7289 17.5619V19.9232H47.3823V17.5619C47.3823 17.2797 47.4565 17.0607 47.605 16.9047C47.7535 16.7488 47.9652 16.6708 48.2399 16.6708C48.5221 16.6708 48.7374 16.7488 48.8859 16.9047C49.0344 17.0607 49.1087 17.2797 49.1087 17.5619V23.8327C49.1087 24.1149 49.0344 24.3339 48.8859 24.4899C48.7374 24.6458 48.5221 24.7238 48.2399 24.7238C47.9652 24.7238 47.7535 24.6458 47.605 24.4899C47.4565 24.3339 47.3823 24.1149 47.3823 23.8327V21.36H43.7289V23.8327C43.7289 24.1149 43.6547 24.3339 43.5062 24.4899C43.3651 24.6458 43.1534 24.7238 42.8713 24.7238ZM53.8455 24.7461C53.2589 24.7461 52.7465 24.631 52.3084 24.4008C51.8777 24.1706 51.5436 23.8401 51.306 23.4095C51.0684 22.9788 50.9496 22.4701 50.9496 21.8835C50.9496 21.4454 51.0164 21.0519 51.15 20.7029C51.2837 20.3539 51.4768 20.0568 51.7292 19.8118C51.9891 19.5593 52.2973 19.37 52.6537 19.2438C53.0101 19.1101 53.4074 19.0433 53.8455 19.0433C54.4321 19.0433 54.9408 19.1584 55.3714 19.3886C55.8096 19.6187 56.1474 19.9455 56.385 20.3687C56.6301 20.792 56.7526 21.2969 56.7526 21.8835C56.7526 22.3291 56.682 22.7263 56.541 23.0753C56.4073 23.4243 56.2142 23.725 55.9618 23.9775C55.7093 24.23 55.4011 24.423 55.0373 24.5567C54.6809 24.6829 54.2836 24.7461 53.8455 24.7461ZM53.8455 23.4874C54.0905 23.4874 54.3022 23.428 54.4804 23.3092C54.6586 23.1904 54.7997 23.0159 54.9036 22.7857C55.0076 22.5481 55.0596 22.2474 55.0596 21.8835C55.0596 21.3415 54.9482 20.9442 54.7254 20.6917C54.5027 20.4318 54.2094 20.3019 53.8455 20.3019C53.6079 20.3019 53.3963 20.3576 53.2106 20.469C53.0324 20.5803 52.8913 20.7548 52.7874 20.9925C52.6908 21.2227 52.6426 21.5197 52.6426 21.8835C52.6426 22.4256 52.754 22.8303 52.9767 23.0976C53.1995 23.3575 53.4891 23.4874 53.8455 23.4874ZM59.3129 24.7238C59.0382 24.7238 58.8265 24.6495 58.678 24.501C58.5369 24.3525 58.4664 24.1409 58.4664 23.8661V19.9121C58.4664 19.6373 58.5369 19.4294 58.678 19.2883C58.8265 19.1398 59.0307 19.0655 59.2906 19.0655C59.558 19.0655 59.7622 19.1398 59.9032 19.2883C60.0443 19.4294 60.1149 19.6373 60.1149 19.9121V20.6249L59.9923 20.1794C60.1409 19.8378 60.371 19.5631 60.6829 19.3551C60.9948 19.1472 61.3624 19.0433 61.7856 19.0433C62.2089 19.0433 62.5616 19.1435 62.8437 19.344C63.1259 19.5445 63.3264 19.8526 63.4452 20.2685H63.2893C63.4526 19.8898 63.7014 19.5928 64.0355 19.3774C64.3771 19.1546 64.7669 19.0433 65.2051 19.0433C65.6283 19.0433 65.9736 19.1287 66.2409 19.2994C66.5157 19.4628 66.7199 19.7153 66.8535 20.0568C66.9872 20.391 67.054 20.818 67.054 21.3377V23.8661C67.054 24.1409 66.9797 24.3525 66.8312 24.501C66.6902 24.6495 66.486 24.7238 66.2186 24.7238C65.9439 24.7238 65.7323 24.6495 65.5838 24.501C65.4427 24.3525 65.3721 24.1409 65.3721 23.8661V21.3934C65.3721 21.0296 65.3127 20.766 65.1939 20.6026C65.0825 20.4318 64.8895 20.3464 64.6147 20.3464C64.2954 20.3464 64.0467 20.4578 63.8685 20.6806C63.6902 20.9034 63.6011 21.2189 63.6011 21.6273V23.8661C63.6011 24.1409 63.5269 24.3525 63.3784 24.501C63.2373 24.6495 63.0331 24.7238 62.7658 24.7238C62.4985 24.7238 62.2905 24.6495 62.142 24.501C61.9935 24.3525 61.9193 24.1409 61.9193 23.8661V21.3934C61.9193 21.0296 61.8599 20.766 61.7411 20.6026C61.6297 20.4318 61.4366 20.3464 61.1619 20.3464C60.8426 20.3464 60.5938 20.4578 60.4156 20.6806C60.2374 20.9034 60.1483 21.2189 60.1483 21.6273V23.8661C60.1483 24.4379 59.8698 24.7238 59.3129 24.7238ZM71.8509 24.7461C71.2049 24.7461 70.648 24.631 70.1802 24.4008C69.7198 24.1632 69.3634 23.8327 69.1109 23.4095C68.8659 22.9788 68.7434 22.4739 68.7434 21.8947C68.7434 21.3303 68.8622 20.8365 69.0998 20.4133C69.3374 19.9826 69.6678 19.6484 70.0911 19.4108C70.5218 19.1658 71.0081 19.0433 71.5502 19.0433C71.9438 19.0433 72.3002 19.1101 72.6195 19.2438C72.9388 19.37 73.2135 19.5556 73.4437 19.8007C73.6739 20.0383 73.8484 20.3316 73.9672 20.6806C74.086 21.0222 74.1454 21.4046 74.1454 21.8278C74.1454 21.9689 74.1009 22.0766 74.0118 22.1508C73.9227 22.2177 73.7927 22.2511 73.6219 22.2511H70.1245V21.3823H72.9313L72.7531 21.5382C72.7531 21.2338 72.7086 20.9813 72.6195 20.7808C72.5304 20.5729 72.4004 20.417 72.2296 20.313C72.0663 20.2091 71.8621 20.1571 71.617 20.1571C71.3423 20.1571 71.1084 20.2202 70.9153 20.3464C70.7223 20.4727 70.5738 20.6546 70.4698 20.8922C70.3658 21.1298 70.3139 21.4157 70.3139 21.7499V21.839C70.3139 22.4033 70.4438 22.8191 70.7037 23.0865C70.971 23.3538 71.3646 23.4874 71.8844 23.4874C72.0626 23.4874 72.2668 23.4652 72.497 23.4206C72.7271 23.376 72.9425 23.3055 73.143 23.209C73.3138 23.1273 73.466 23.1013 73.5996 23.131C73.7333 23.1533 73.8373 23.2127 73.9115 23.3092C73.9858 23.4058 74.0266 23.5171 74.034 23.6434C74.0489 23.7696 74.0229 23.8958 73.9561 24.0221C73.8892 24.1409 73.7779 24.2411 73.6219 24.3228C73.3695 24.4639 73.0836 24.5678 72.7643 24.6347C72.4524 24.7089 72.148 24.7461 71.8509 24.7461Z" fill="#DF87FF"/>
<path d="M31.7724 17.025C31.5269 16.9855 31.2794 16.9599 31.031 16.9484C27.4876 16.1624 12.4228 22.7533 12.4228 22.7533L12.4203 23.6208H12.4146C13.783 27.4378 17.4334 30.168 21.7215 30.168C25.8852 30.168 29.4484 27.5935 30.9049 23.9495C31.826 23.8169 32.8377 23.3605 33.5948 22.708C34.515 21.9154 35.2837 20.6475 34.6922 19.1629C34.169 17.848 33.0041 17.2285 31.7724 17.025Z" fill="url(#paint0_radial_61_331)"/>
<path d="M31.7724 17.025C31.5269 16.9855 31.2794 16.9599 31.031 16.9484C27.4876 16.1624 12.4228 22.7533 12.4228 22.7533L12.4203 23.6208H12.4146C13.783 27.4378 17.4334 30.168 21.7215 30.168C25.8852 30.168 29.4484 27.5935 30.9049 23.9495C31.826 23.8169 32.8377 23.3605 33.5948 22.708C34.515 21.9154 35.2837 20.6475 34.6922 19.1629C34.169 17.848 33.0041 17.2285 31.7724 17.025Z" fill="url(#paint1_radial_61_331)"/>
<path d="M31.7724 17.025C31.5269 16.9855 31.2794 16.9599 31.031 16.9484C27.4876 16.1624 12.4228 22.7533 12.4228 22.7533L12.4203 23.6208H12.4146C13.783 27.4378 17.4334 30.168 21.7215 30.168C25.8852 30.168 29.4484 27.5935 30.9049 23.9495C31.826 23.8169 32.8377 23.3605 33.5948 22.708C34.515 21.9154 35.2837 20.6475 34.6922 19.1629C34.169 17.848 33.0041 17.2285 31.7724 17.025Z" fill="url(#paint2_radial_61_331)"/>
<path d="M31.7724 17.025C31.5269 16.9855 31.2794 16.9599 31.031 16.9484C27.4876 16.1624 12.4228 22.7533 12.4228 22.7533L12.4203 23.6208H12.4146C13.783 27.4378 17.4334 30.168 21.7215 30.168C25.8852 30.168 29.4484 27.5935 30.9049 23.9495C31.826 23.8169 32.8377 23.3605 33.5948 22.708C34.515 21.9154 35.2837 20.6475 34.6922 19.1629C34.169 17.848 33.0041 17.2285 31.7724 17.025Z" fill="url(#paint3_radial_61_331)"/>
<path d="M31.7724 17.025C31.5269 16.9855 31.2794 16.9599 31.031 16.9484C27.4876 16.1624 12.4228 22.7533 12.4228 22.7533L12.4203 23.6208H12.4146C13.783 27.4378 17.4334 30.168 21.7215 30.168C25.8852 30.168 29.4484 27.5935 30.9049 23.9495C31.826 23.8169 32.8377 23.3605 33.5948 22.708C34.515 21.9154 35.2837 20.6475 34.6922 19.1629C34.169 17.848 33.0041 17.2285 31.7724 17.025Z" fill="url(#paint4_radial_61_331)" fill-opacity="0.5"/>
<path d="M31.7724 17.025C31.5269 16.9855 31.2794 16.9599 31.031 16.9484C27.4876 16.1624 12.4228 22.7533 12.4228 22.7533L12.4203 23.6208H12.4146C13.783 27.4378 17.4334 30.168 21.7215 30.168C25.8852 30.168 29.4484 27.5935 30.9049 23.9495C31.826 23.8169 32.8377 23.3605 33.5948 22.708C34.515 21.9154 35.2837 20.6475 34.6922 19.1629C34.169 17.848 33.0041 17.2285 31.7724 17.025Z" fill="url(#paint5_radial_61_331)"/>
<path d="M11.6705 23.539C11.916 23.5785 12.1636 23.6041 12.412 23.6156C15.7749 23.6148 18.7654 21.9415 21.7511 20.2708C24.726 18.6057 27.6959 16.9432 31.0234 16.9432H31.0292C29.66 13.1263 26.0095 10.396 21.7214 10.396C17.5577 10.396 13.9946 12.9706 12.538 16.6145C11.6169 16.7471 10.6053 17.2035 9.84814 17.856C8.92791 18.6494 8.15514 19.9462 8.74584 21.4316C9.26898 22.7456 10.4388 23.3355 11.6705 23.539Z" fill="url(#paint6_radial_61_331)"/>
<path d="M11.6705 23.539C11.916 23.5785 12.1636 23.6041 12.412 23.6156C15.7749 23.6148 18.7654 21.9415 21.7511 20.2708C24.726 18.6057 27.6959 16.9432 31.0234 16.9432H31.0292C29.66 13.1263 26.0095 10.396 21.7214 10.396C17.5577 10.396 13.9946 12.9706 12.538 16.6145C11.6169 16.7471 10.6053 17.2035 9.84814 17.856C8.92791 18.6494 8.15514 19.9462 8.74584 21.4316C9.26898 22.7456 10.4388 23.3355 11.6705 23.539Z" fill="url(#paint7_radial_61_331)"/>
<path d="M11.6705 23.539C11.916 23.5785 12.1636 23.6041 12.412 23.6156C15.7749 23.6148 18.7654 21.9415 21.7511 20.2708C24.726 18.6057 27.6959 16.9432 31.0234 16.9432H31.0292C29.66 13.1263 26.0095 10.396 21.7214 10.396C17.5577 10.396 13.9946 12.9706 12.538 16.6145C11.6169 16.7471 10.6053 17.2035 9.84814 17.856C8.92791 18.6494 8.15514 19.9462 8.74584 21.4316C9.26898 22.7456 10.4388 23.3355 11.6705 23.539Z" fill="url(#paint8_radial_61_331)"/>
<path d="M11.6705 23.539C11.916 23.5785 12.1636 23.6041 12.412 23.6156C15.7749 23.6148 18.7654 21.9415 21.7511 20.2708C24.726 18.6057 27.6959 16.9432 31.0234 16.9432H31.0292C29.66 13.1263 26.0095 10.396 21.7214 10.396C17.5577 10.396 13.9946 12.9706 12.538 16.6145C11.6169 16.7471 10.6053 17.2035 9.84814 17.856C8.92791 18.6494 8.15514 19.9462 8.74584 21.4316C9.26898 22.7456 10.4388 23.3355 11.6705 23.539Z" fill="url(#paint9_radial_61_331)"/>
</g>
<rect x="1.11383" y="1.11383" width="148.51" height="38.9839" rx="7.79678" stroke="#888888" stroke-opacity="0.6" stroke-width="2.22765"/>
<defs>
<radialGradient id="paint0_radial_61_331" cx="0" cy="0" r="1" gradientTransform="matrix(-12.3784 -16.5462 16.5535 -12.3842 30.2235 31.5189)" gradientUnits="userSpaceOnUse">
<stop stop-color="#8F77FF"/>
<stop offset="0.457" stop-color="#775BE3"/>
<stop offset="0.656" stop-color="#6552D9"/>
</radialGradient>
<radialGradient id="paint1_radial_61_331" cx="0" cy="0" r="1" gradientTransform="matrix(-4.32911 1.48575 -3.62835 -10.5724 34.2151 22.7393)" gradientUnits="userSpaceOnUse">
<stop offset="0.241" stop-color="#6E30C8"/>
<stop offset="1" stop-color="#6730C6" stop-opacity="0"/>
</radialGradient>
<radialGradient id="paint2_radial_61_331" cx="0" cy="0" r="1" gradientTransform="matrix(-5.41141 -7.56401 29.3186 -20.9756 26.8426 36.0034)" gradientUnits="userSpaceOnUse">
<stop stop-color="#F36284"/>
<stop offset="1" stop-color="#F36284" stop-opacity="0"/>
</radialGradient>
<radialGradient id="paint3_radial_61_331" cx="0" cy="0" r="1" gradientUnits="userSpaceOnUse" gradientTransform="translate(35.8389 16.8833) rotate(180) scale(17.9252 9.80202)">
<stop stop-color="#7D40C8"/>
<stop offset="1" stop-color="#7F45D2" stop-opacity="0"/>
</radialGradient>
<radialGradient id="paint4_radial_61_331" cx="0" cy="0" r="1" gradientTransform="matrix(11.2426 15.9041 -48.7788 34.4829 23.6576 29.3919)" gradientUnits="userSpaceOnUse">
<stop offset="0.265" stop-color="#0A26B5" stop-opacity="0"/>
<stop offset="0.581" stop-color="#051D92"/>
</radialGradient>
<radialGradient id="paint5_radial_61_331" cx="0" cy="0" r="1" gradientTransform="matrix(-4.66732 0.337675 -0.883624 -12.2138 35.3644 24.4274)" gradientUnits="userSpaceOnUse">
<stop offset="0.195" stop-color="#E173E7"/>
<stop offset="0.901" stop-color="#E173E7" stop-opacity="0"/>
</radialGradient>
<radialGradient id="paint6_radial_61_331" cx="0" cy="0" r="1" gradientTransform="matrix(16.6568 11.9821 -11.866 16.496 15.0441 11.1993)" gradientUnits="userSpaceOnUse">
<stop stop-color="#3DD3DC"/>
<stop offset="1" stop-color="#4290F0"/>
</radialGradient>
<radialGradient id="paint7_radial_61_331" cx="0" cy="0" r="1" gradientTransform="matrix(4.36264 -5.489 13.4421 10.684 8.53905 17.7596)" gradientUnits="userSpaceOnUse">
<stop offset="0.285" stop-color="#3A80E1"/>
<stop offset="1" stop-color="#488AE5" stop-opacity="0"/>
</radialGradient>
<radialGradient id="paint8_radial_61_331" cx="0" cy="0" r="1" gradientTransform="matrix(3.46413 -0.602479 1.8088 10.4005 8.53988 15.6852)" gradientUnits="userSpaceOnUse">
<stop offset="0.232" stop-color="#3DD3DC"/>
<stop offset="1" stop-color="#3DD3DC" stop-opacity="0"/>
</radialGradient>
<radialGradient id="paint9_radial_61_331" cx="0" cy="0" r="1" gradientTransform="matrix(5.16409 12.4951 -38.7781 16.027 14.6205 10.9852)" gradientUnits="userSpaceOnUse">
<stop offset="0.576" stop-color="#26CFDB" stop-opacity="0"/>
<stop offset="1" stop-color="#19D9E7"/>
</radialGradient>
<clipPath id="clip0_61_331">
<rect width="150.738" height="41.2116" rx="8.91061" fill="white"/>
</clipPath>
</defs>
</svg>
