<svg width="151" height="42" viewBox="0 0 151 42" fill="none" xmlns="http://www.w3.org/2000/svg">
<g clip-path="url(#clip0_61_358)">
<rect width="150.738" height="41.2116" rx="8.91061" fill="black" fill-opacity="0.2"/>
<path d="M44.7425 24.7238C44.4603 24.7238 44.245 24.6458 44.0965 24.4899C43.948 24.3339 43.8737 24.1149 43.8737 23.8327V18.1968H41.9022C41.6721 18.1968 41.4938 18.1336 41.3676 18.0074C41.2414 17.8812 41.1783 17.7067 41.1783 17.4839C41.1783 17.2537 41.2414 17.0792 41.3676 16.9604C41.4938 16.8342 41.6721 16.7711 41.9022 16.7711H47.5716C47.8018 16.7711 47.98 16.8342 48.1063 16.9604C48.2325 17.0792 48.2956 17.2537 48.2956 17.4839C48.2956 17.7067 48.2325 17.8812 48.1063 18.0074C47.98 18.1336 47.8018 18.1968 47.5716 18.1968H45.6001V23.8327C45.6001 24.1149 45.5259 24.3339 45.3774 24.4899C45.2363 24.6458 45.0247 24.7238 44.7425 24.7238ZM51.3111 24.7461C50.7245 24.7461 50.2121 24.631 49.774 24.4008C49.3434 24.1706 49.0092 23.8401 48.7716 23.4095C48.534 22.9788 48.4152 22.4701 48.4152 21.8835C48.4152 21.4454 48.482 21.0519 48.6157 20.7029C48.7493 20.3539 48.9424 20.0568 49.1948 19.8118C49.4547 19.5593 49.7629 19.37 50.1193 19.2438C50.4757 19.1101 50.873 19.0433 51.3111 19.0433C51.8977 19.0433 52.4064 19.1584 52.8371 19.3886C53.2752 19.6187 53.613 19.9455 53.8506 20.3687C54.0957 20.792 54.2182 21.2969 54.2182 21.8835C54.2182 22.3291 54.1477 22.7263 54.0066 23.0753C53.8729 23.4243 53.6799 23.725 53.4274 23.9775C53.1749 24.23 52.8668 24.423 52.5029 24.5567C52.1465 24.6829 51.7492 24.7461 51.3111 24.7461ZM51.3111 23.4874C51.5562 23.4874 51.7678 23.428 51.946 23.3092C52.1242 23.1904 52.2653 23.0159 52.3692 22.7857C52.4732 22.5481 52.5252 22.2474 52.5252 21.8835C52.5252 21.3415 52.4138 20.9442 52.191 20.6917C51.9683 20.4318 51.675 20.3019 51.3111 20.3019C51.0735 20.3019 50.8619 20.3576 50.6762 20.469C50.498 20.5803 50.3569 20.7548 50.253 20.9925C50.1564 21.2227 50.1082 21.5197 50.1082 21.8835C50.1082 22.4256 50.2196 22.8303 50.4423 23.0976C50.6651 23.3575 50.9547 23.4874 51.3111 23.4874ZM58.5384 24.7461C57.9518 24.7461 57.4394 24.631 57.0013 24.4008C56.5706 24.1706 56.2365 23.8401 55.9988 23.4095C55.7612 22.9788 55.6424 22.4701 55.6424 21.8835C55.6424 21.4454 55.7092 21.0519 55.8429 20.7029C55.9766 20.3539 56.1696 20.0568 56.4221 19.8118C56.682 19.5593 56.9901 19.37 57.3466 19.2438C57.703 19.1101 58.1003 19.0433 58.5384 19.0433C59.125 19.0433 59.6336 19.1584 60.0643 19.3886C60.5024 19.6187 60.8403 19.9455 61.0779 20.3687C61.3229 20.792 61.4455 21.2969 61.4455 21.8835C61.4455 22.3291 61.3749 22.7263 61.2338 23.0753C61.1002 23.4243 60.9071 23.725 60.6546 23.9775C60.4022 24.23 60.094 24.423 59.7302 24.5567C59.3737 24.6829 58.9765 24.7461 58.5384 24.7461ZM58.5384 23.4874C58.7834 23.4874 58.995 23.428 59.1732 23.3092C59.3515 23.1904 59.4925 23.0159 59.5965 22.7857C59.7005 22.5481 59.7524 22.2474 59.7524 21.8835C59.7524 21.3415 59.6411 20.9442 59.4183 20.6917C59.1955 20.4318 58.9022 20.3019 58.5384 20.3019C58.3008 20.3019 58.0891 20.3576 57.9035 20.469C57.7253 20.5803 57.5842 20.7548 57.4802 20.9925C57.3837 21.2227 57.3354 21.5197 57.3354 21.8835C57.3354 22.4256 57.4468 22.8303 57.6696 23.0976C57.8923 23.3575 58.1819 23.4874 58.5384 23.4874ZM65.1085 24.7461C64.4476 24.7461 63.9538 24.5641 63.6271 24.2003C63.3003 23.829 63.137 23.2795 63.137 22.5518V17.5285C63.137 17.2463 63.2075 17.0347 63.3486 16.8936C63.4971 16.7451 63.7088 16.6708 63.9835 16.6708C64.2508 16.6708 64.455 16.7451 64.5961 16.8936C64.7446 17.0347 64.8189 17.2463 64.8189 17.5285V22.485C64.8189 22.7894 64.882 23.0159 65.0082 23.1644C65.1419 23.3055 65.3164 23.376 65.5317 23.376C65.5911 23.376 65.6468 23.3723 65.6988 23.3649C65.7508 23.3575 65.8065 23.3538 65.8659 23.3538C65.9847 23.3389 66.0664 23.376 66.1109 23.4652C66.1629 23.5468 66.1889 23.7139 66.1889 23.9664C66.1889 24.1891 66.1443 24.3599 66.0552 24.4787C65.9661 24.5901 65.8287 24.6644 65.6431 24.7015C65.5688 24.7089 65.4834 24.7164 65.3869 24.7238C65.2904 24.7386 65.1976 24.7461 65.1085 24.7461ZM69.554 24.7461C69.2273 24.7461 68.8894 24.7164 68.5404 24.6569C68.1989 24.5975 67.887 24.4973 67.6048 24.3562C67.4563 24.282 67.3486 24.1891 67.2818 24.0778C67.2224 23.959 67.1964 23.8401 67.2038 23.7213C67.2113 23.6025 67.2484 23.4949 67.3152 23.3983C67.3895 23.3018 67.4823 23.2387 67.5937 23.209C67.7125 23.1718 67.8424 23.183 67.9835 23.2424C68.288 23.3686 68.5664 23.4577 68.8189 23.5097C69.0714 23.5617 69.3201 23.5877 69.5652 23.5877C69.8845 23.5877 70.1146 23.5394 70.2557 23.4429C70.4042 23.3389 70.4785 23.2053 70.4785 23.0419C70.4785 22.8934 70.4302 22.782 70.3337 22.7078C70.2372 22.6335 70.0961 22.5815 69.9104 22.5518L68.7409 22.3402C68.2805 22.2585 67.9241 22.0914 67.6717 21.839C67.4266 21.5791 67.3041 21.2486 67.3041 20.8477C67.3041 20.4764 67.408 20.1571 67.616 19.8898C67.8239 19.615 68.1098 19.4071 68.4736 19.266C68.8449 19.1175 69.2644 19.0433 69.7322 19.0433C70.0664 19.0433 70.3745 19.073 70.6567 19.1324C70.9389 19.1918 71.2099 19.2883 71.4698 19.422C71.6035 19.4888 71.6963 19.5779 71.7483 19.6893C71.8077 19.8007 71.8262 19.9158 71.8039 20.0346C71.7891 20.1534 71.7445 20.261 71.6703 20.3576C71.596 20.4541 71.4995 20.5172 71.3807 20.5469C71.2693 20.5766 71.1394 20.5618 70.9909 20.5024C70.7532 20.391 70.5342 20.313 70.3337 20.2685C70.1332 20.2165 69.9401 20.1905 69.7545 20.1905C69.4204 20.1905 69.179 20.2462 69.0305 20.3576C68.882 20.4615 68.8078 20.5952 68.8078 20.7586C68.8078 20.8848 68.8486 20.9925 68.9303 21.0816C69.0194 21.1632 69.153 21.2189 69.3313 21.2486L70.5008 21.4603C70.9834 21.5419 71.351 21.7053 71.6035 21.9504C71.8559 22.188 71.9822 22.5147 71.9822 22.9305C71.9822 23.4949 71.7594 23.9404 71.3139 24.2671C70.8758 24.5864 70.2891 24.7461 69.554 24.7461Z" fill="#EBEB8D"/>
<path d="M15.0896 10.5029C14.1401 10.5029 13.2295 10.8801 12.5581 11.5515C11.8867 12.2229 11.5095 13.1335 11.5095 14.083V27.6075C11.5095 28.557 11.8867 29.4676 12.5581 30.1389C13.2295 30.8103 14.1401 31.1875 15.0896 31.1875H28.6143C29.5638 31.1875 30.4744 30.8103 31.1458 30.1389C31.8172 29.4676 32.1944 28.557 32.1944 27.6075V14.083C32.1944 13.1335 31.8172 12.2229 31.1458 11.5515C30.4744 10.8801 29.5638 10.5029 28.6143 10.5029H15.0896Z" fill="url(#paint0_linear_61_358)"/>
<path d="M15.0896 10.5029C14.1401 10.5029 13.2295 10.8801 12.5581 11.5515C11.8867 12.2229 11.5095 13.1335 11.5095 14.083V27.6075C11.5095 28.557 11.8867 29.4676 12.5581 30.1389C13.2295 30.8103 14.1401 31.1875 15.0896 31.1875H28.6143C29.5638 31.1875 30.4744 30.8103 31.1458 30.1389C31.8172 29.4676 32.1944 28.557 32.1944 27.6075V14.083C32.1944 13.1335 31.8172 12.2229 31.1458 11.5515C30.4744 10.8801 29.5638 10.5029 28.6143 10.5029H15.0896Z" fill="url(#paint1_radial_61_358)"/>
<path d="M15.0896 10.5029C14.1401 10.5029 13.2295 10.8801 12.5581 11.5515C11.8867 12.2229 11.5095 13.1335 11.5095 14.083V27.6075C11.5095 28.557 11.8867 29.4676 12.5581 30.1389C13.2295 30.8103 14.1401 31.1875 15.0896 31.1875H28.6143C29.5638 31.1875 30.4744 30.8103 31.1458 30.1389C31.8172 29.4676 32.1944 28.557 32.1944 27.6075V14.083C32.1944 13.1335 31.8172 12.2229 31.1458 11.5515C30.4744 10.8801 29.5638 10.5029 28.6143 10.5029H15.0896Z" fill="url(#paint2_radial_61_358)"/>
<path d="M15.0896 10.5029C14.1401 10.5029 13.2295 10.8801 12.5581 11.5515C11.8867 12.2229 11.5095 13.1335 11.5095 14.083V27.6075C11.5095 28.557 11.8867 29.4676 12.5581 30.1389C13.2295 30.8103 14.1401 31.1875 15.0896 31.1875H28.6143C29.5638 31.1875 30.4744 30.8103 31.1458 30.1389C31.8172 29.4676 32.1944 28.557 32.1944 27.6075V14.083C32.1944 13.1335 31.8172 12.2229 31.1458 11.5515C30.4744 10.8801 29.5638 10.5029 28.6143 10.5029H15.0896Z" fill="url(#paint3_radial_61_358)"/>
<path d="M15.0896 10.5029C14.1401 10.5029 13.2295 10.8801 12.5581 11.5515C11.8867 12.2229 11.5095 13.1335 11.5095 14.083V27.6075C11.5095 28.557 11.8867 29.4676 12.5581 30.1389C13.2295 30.8103 14.1401 31.1875 15.0896 31.1875H28.6143C29.5638 31.1875 30.4744 30.8103 31.1458 30.1389C31.8172 29.4676 32.1944 28.557 32.1944 27.6075V14.083C32.1944 13.1335 31.8172 12.2229 31.1458 11.5515C30.4744 10.8801 29.5638 10.5029 28.6143 10.5029H15.0896Z" fill="url(#paint4_radial_61_358)"/>
<path d="M18.6697 16.4692C18.6697 16.1527 18.5439 15.8492 18.3201 15.6254C18.0963 15.4016 17.7928 15.2759 17.4763 15.2759C17.1598 15.2759 16.8563 15.4016 16.6325 15.6254C16.4087 15.8492 16.283 16.1527 16.283 16.4692C16.283 16.7857 16.4087 17.0892 16.6325 17.313C16.8563 17.5368 17.1598 17.6626 17.4763 17.6626C17.7928 17.6626 18.0963 17.5368 18.3201 17.313C18.5439 17.0892 18.6697 16.7857 18.6697 16.4692ZM18.6697 20.8448C18.6697 20.5283 18.5439 20.2248 18.3201 20.001C18.0963 19.7772 17.7928 19.6515 17.4763 19.6515C17.1598 19.6515 16.8563 19.7772 16.6325 20.001C16.4087 20.2248 16.283 20.5283 16.283 20.8448C16.283 21.1613 16.4087 21.4648 16.6325 21.6886C16.8563 21.9124 17.1598 22.0381 17.4763 22.0381C17.7928 22.0381 18.0963 21.9124 18.3201 21.6886C18.5439 21.4648 18.6697 21.1613 18.6697 20.8448ZM17.4763 26.4137C17.7928 26.4137 18.0963 26.288 18.3201 26.0642C18.5439 25.8404 18.6697 25.5369 18.6697 25.2204C18.6697 24.9039 18.5439 24.6004 18.3201 24.3766C18.0963 24.1528 17.7928 24.027 17.4763 24.027C17.1598 24.027 16.8563 24.1528 16.6325 24.3766C16.4087 24.6004 16.283 24.9039 16.283 25.2204C16.283 25.5369 16.4087 25.8404 16.6325 26.0642C16.8563 26.288 17.1598 26.4137 17.4763 26.4137ZM20.2608 16.4692C20.2608 16.6802 20.3446 16.8826 20.4938 17.0318C20.643 17.181 20.8454 17.2648 21.0564 17.2648H26.6254C26.8364 17.2648 27.0387 17.181 27.1879 17.0318C27.3371 16.8826 27.421 16.6802 27.421 16.4692C27.421 16.2582 27.3371 16.0559 27.1879 15.9067C27.0387 15.7575 26.8364 15.6737 26.6254 15.6737H21.0564C20.8454 15.6737 20.643 15.7575 20.4938 15.9067C20.3446 16.0559 20.2608 16.2582 20.2608 16.4692ZM21.0564 20.0492C20.8454 20.0492 20.643 20.1331 20.4938 20.2823C20.3446 20.4315 20.2608 20.6338 20.2608 20.8448C20.2608 21.0558 20.3446 21.2582 20.4938 21.4074C20.643 21.5565 20.8454 21.6404 21.0564 21.6404H26.6254C26.8364 21.6404 27.0387 21.5565 27.1879 21.4074C27.3371 21.2582 27.421 21.0558 27.421 20.8448C27.421 20.6338 27.3371 20.4315 27.1879 20.2823C27.0387 20.1331 26.8364 20.0492 26.6254 20.0492H21.0564ZM20.2608 25.2204C20.2608 25.4314 20.3446 25.6337 20.4938 25.7829C20.643 25.9321 20.8454 26.0159 21.0564 26.0159H26.6254C26.8364 26.0159 27.0387 25.9321 27.1879 25.7829C27.3371 25.6337 27.421 25.4314 27.421 25.2204C27.421 25.0094 27.3371 24.807 27.1879 24.6578C27.0387 24.5086 26.8364 24.4248 26.6254 24.4248H21.0564C20.8454 24.4248 20.643 24.5086 20.4938 24.6578C20.3446 24.807 20.2608 25.0094 20.2608 25.2204Z" fill="url(#paint5_linear_61_358)"/>
<path d="M34.3741 18.9801L33.643 18.7423C33.4212 18.6682 33.2196 18.5436 33.0541 18.3783C32.8885 18.2131 32.7636 18.0117 32.6891 17.79L32.452 17.0597C32.4321 17.0035 32.3952 16.9549 32.3465 16.9205C32.2977 16.8861 32.2396 16.8677 32.18 16.8677C32.1203 16.8677 32.0622 16.8861 32.0135 16.9205C31.9647 16.9549 31.9279 17.0035 31.9079 17.0597L31.67 17.79C31.5976 18.0104 31.4752 18.211 31.3123 18.3762C31.1494 18.5414 30.9506 18.6667 30.7312 18.7423L30.0001 18.9801C29.9439 19.0001 29.8953 19.037 29.8609 19.0857C29.8266 19.1344 29.8081 19.1926 29.8081 19.2522C29.8081 19.3119 29.8266 19.37 29.8609 19.4187C29.8953 19.4674 29.9439 19.5043 30.0001 19.5243L30.7312 19.7614C30.9533 19.836 31.1551 19.9612 31.3205 20.1272C31.4859 20.2932 31.6104 20.4953 31.6843 20.7177L31.9222 21.448C31.9422 21.5041 31.9791 21.5528 32.0278 21.5871C32.0765 21.6215 32.1347 21.64 32.1943 21.64C32.2539 21.64 32.3121 21.6215 32.3608 21.5871C32.4095 21.5528 32.4464 21.5041 32.4664 21.448L32.7042 20.7177C32.7781 20.4957 32.9027 20.2941 33.0682 20.1288C33.2336 19.9635 33.4354 19.839 33.6573 19.7654L34.3885 19.5275C34.4446 19.5075 34.4933 19.4706 34.5276 19.4219C34.562 19.3732 34.5805 19.315 34.5805 19.2554C34.5805 19.1958 34.562 19.1376 34.5276 19.0889C34.4933 19.0402 34.4446 19.0033 34.3885 18.9833L34.3741 18.9801Z" fill="url(#paint6_radial_61_358)"/>
<path d="M26.4464 15.1461C26.1104 14.7144 25.6547 14.3912 25.1361 14.2169L23.7964 13.7825C23.6932 13.7461 23.6039 13.6785 23.5407 13.5892C23.4775 13.4999 23.4436 13.3931 23.4436 13.2837C23.4436 13.1743 23.4775 13.0676 23.5407 12.9782C23.6039 12.8889 23.6932 12.8214 23.7964 12.7849L25.1361 12.3497C25.5327 12.2128 25.8929 11.9874 26.1893 11.6904C26.4856 11.3935 26.7104 11.0329 26.8466 10.6361L26.8577 10.6027L27.2929 9.26454C27.3292 9.1611 27.3967 9.07149 27.4862 9.00809C27.5756 8.9447 27.6825 8.91064 27.7921 8.91064C27.9018 8.91064 28.0087 8.9447 28.0981 9.00809C28.1875 9.07149 28.2551 9.1611 28.2914 9.26454L28.7265 10.6027C28.8622 11.0097 29.0909 11.3796 29.3944 11.6829C29.6979 11.9861 30.068 12.2144 30.4752 12.3497L31.8141 12.7849L31.8412 12.7913C31.9444 12.8277 32.0337 12.8953 32.0969 12.9846C32.16 13.0739 32.194 13.1807 32.194 13.2901C32.194 13.3995 32.16 13.5062 32.0969 13.5956C32.0337 13.6849 31.9444 13.7524 31.8412 13.7889L30.5015 14.2241C30.0944 14.3595 29.7245 14.5878 29.4211 14.8911C29.1177 15.1943 28.8892 15.5641 28.7536 15.9711L28.3176 17.3093L28.3049 17.3427C28.2631 17.4408 28.1926 17.5239 28.1027 17.5812C28.0127 17.6385 27.9075 17.6672 27.801 17.6636C27.6944 17.66 27.5914 17.6242 27.5056 17.5609C27.4197 17.4977 27.355 17.41 27.32 17.3093L26.884 15.9711C26.7856 15.6734 26.6377 15.3945 26.4464 15.1461Z" fill="url(#paint7_radial_61_358)"/>
</g>
<rect x="1.11383" y="1.11383" width="148.51" height="38.9839" rx="7.79678" stroke="#888888" stroke-opacity="0.6" stroke-width="2.22765"/>
<defs>
<linearGradient id="paint0_linear_61_358" x1="12.2486" y1="14.3813" x2="26.5233" y2="29.2123" gradientUnits="userSpaceOnUse">
<stop stop-color="#A7E2FF"/>
<stop offset="1" stop-color="#1F49A5"/>
</linearGradient>
<radialGradient id="paint1_radial_61_358" cx="0" cy="0" r="1" gradientUnits="userSpaceOnUse" gradientTransform="translate(32.1944 19.6519) rotate(180) scale(2.7845 1.39058)">
<stop stop-color="#4A43CB"/>
<stop offset="1" stop-color="#4A43CB" stop-opacity="0"/>
</radialGradient>
<radialGradient id="paint2_radial_61_358" cx="0" cy="0" r="1" gradientUnits="userSpaceOnUse" gradientTransform="translate(27.8187 14.083) rotate(180) scale(5.569 2.78118)">
<stop stop-color="#4A43CB"/>
<stop offset="1" stop-color="#4A43CB" stop-opacity="0"/>
</radialGradient>
<radialGradient id="paint3_radial_61_358" cx="0" cy="0" r="1" gradientUnits="userSpaceOnUse" gradientTransform="translate(27.8187 14.083) rotate(90) scale(4.77336 2.3839)">
<stop stop-color="#4A43CB"/>
<stop offset="1" stop-color="#4A43CB" stop-opacity="0"/>
</radialGradient>
<radialGradient id="paint4_radial_61_358" cx="0" cy="0" r="1" gradientUnits="userSpaceOnUse" gradientTransform="translate(32.1944 19.6519) rotate(90) scale(3.18224 1.58927)">
<stop stop-color="#4A43CB"/>
<stop offset="1" stop-color="#4A43CB" stop-opacity="0"/>
</radialGradient>
<linearGradient id="paint5_linear_61_358" x1="18.4246" y1="16.1327" x2="26.6077" y2="35.9597" gradientUnits="userSpaceOnUse">
<stop stop-color="white"/>
<stop offset="1" stop-color="#B3E0FF"/>
</linearGradient>
<radialGradient id="paint6_radial_61_358" cx="0" cy="0" r="1" gradientTransform="matrix(12.2404 24.4208 -19.0162 9.53121 21.5733 -1.09312)" gradientUnits="userSpaceOnUse">
<stop offset="0.718" stop-color="#FFCD0F"/>
<stop offset="0.991" stop-color="#E67505"/>
</radialGradient>
<radialGradient id="paint7_radial_61_358" cx="0" cy="0" r="1" gradientTransform="matrix(18.1277 32.9731 -25.6758 14.1154 12.582 -13.1225)" gradientUnits="userSpaceOnUse">
<stop offset="0.698" stop-color="#FFCD0F"/>
<stop offset="0.991" stop-color="#E67505"/>
</radialGradient>
<clipPath id="clip0_61_358">
<rect width="150.738" height="41.2116" rx="8.91061" fill="white"/>
</clipPath>
</defs>
</svg>
