<svg width="151" height="42" viewBox="0 0 151 42" fill="none" xmlns="http://www.w3.org/2000/svg">
<rect width="150.738" height="41.2116" rx="8.91061" fill="black" fill-opacity="0.2"/>
<rect x="1.11383" y="1.11383" width="148.51" height="38.9839" rx="7.79678" stroke="#888888" stroke-opacity="0.6" stroke-width="2.22765"/>
<path d="M44.5695 24.7379C44.2784 24.7379 43.9804 24.7136 43.6755 24.6651C43.3774 24.6235 43.0898 24.5612 42.8126 24.478C42.5423 24.3948 42.2998 24.2909 42.0849 24.1661C41.9324 24.083 41.825 23.9755 41.7626 23.8439C41.7003 23.7052 41.676 23.5666 41.6899 23.428C41.7107 23.2894 41.7626 23.1681 41.8458 23.0642C41.9359 22.9533 42.0468 22.884 42.1785 22.8563C42.3171 22.8216 42.4696 22.8459 42.6359 22.929C42.92 23.0884 43.2284 23.2063 43.5611 23.2825C43.9007 23.3587 44.2368 23.3968 44.5695 23.3968C45.0754 23.3968 45.4358 23.3206 45.6506 23.1681C45.8655 23.0087 45.9729 22.8112 45.9729 22.5756C45.9729 22.3746 45.8967 22.2152 45.7442 22.0974C45.5917 21.9796 45.3249 21.8791 44.9437 21.7959L43.769 21.5464C43.1037 21.4078 42.6082 21.1722 42.2824 20.8395C41.9636 20.4999 41.8042 20.0564 41.8042 19.5088C41.8042 19.1623 41.877 18.847 42.0225 18.5628C42.1681 18.2787 42.3725 18.0327 42.6359 17.8247C42.8992 17.6168 43.2111 17.4574 43.5715 17.3465C43.9388 17.2356 44.3408 17.1802 44.7774 17.1802C45.1655 17.1802 45.5467 17.2287 45.9209 17.3257C46.2952 17.4158 46.6244 17.551 46.9085 17.7312C47.0471 17.8143 47.1407 17.9218 47.1892 18.0534C47.2446 18.1782 47.262 18.3064 47.2412 18.4381C47.2273 18.5628 47.1753 18.6737 47.0852 18.7707C47.0021 18.8678 46.8947 18.9302 46.763 18.9579C46.6313 18.9856 46.4719 18.9544 46.2848 18.8643C46.0561 18.7465 45.8135 18.6599 45.5571 18.6044C45.3006 18.549 45.0373 18.5213 44.767 18.5213C44.4759 18.5213 44.2264 18.5594 44.0185 18.6356C43.8175 18.7118 43.6616 18.8193 43.5507 18.9579C43.4467 19.0965 43.3948 19.2559 43.3948 19.4361C43.3948 19.6371 43.4675 19.7999 43.6131 19.9247C43.7586 20.0494 44.0116 20.1499 44.372 20.2261L45.5467 20.4756C46.2259 20.6212 46.7318 20.8568 47.0645 21.1826C47.3971 21.5014 47.5634 21.9241 47.5634 22.4508C47.5634 22.7974 47.4941 23.1127 47.3555 23.3968C47.2169 23.6741 47.0159 23.9132 46.7526 24.1141C46.4892 24.3151 46.1739 24.4711 45.8066 24.582C45.4393 24.6859 45.0269 24.7379 44.5695 24.7379ZM50.9797 24.7379C50.5501 24.7379 50.1931 24.6582 49.909 24.4988C49.6248 24.3394 49.4135 24.1003 49.2748 23.7815C49.1432 23.4558 49.0773 23.0538 49.0773 22.5756V20.2261C49.0773 19.9628 49.1432 19.7653 49.2748 19.6336C49.4135 19.5019 49.6075 19.4361 49.857 19.4361C50.1065 19.4361 50.3006 19.5019 50.4392 19.6336C50.5778 19.7653 50.6471 19.9628 50.6471 20.2261V22.6172C50.6471 22.9221 50.7095 23.1508 50.8342 23.3033C50.9589 23.4488 51.1565 23.5216 51.4268 23.5216C51.7248 23.5216 51.9673 23.4176 52.1545 23.2097C52.3485 22.9949 52.4455 22.7142 52.4455 22.3677V20.2261C52.4455 19.9628 52.5114 19.7653 52.6431 19.6336C52.7817 19.5019 52.9757 19.4361 53.2252 19.4361C53.4816 19.4361 53.6757 19.5019 53.8074 19.6336C53.946 19.7653 54.0153 19.9628 54.0153 20.2261V23.9166C54.0153 24.4503 53.7623 24.7171 53.2564 24.7171C53.0069 24.7171 52.8163 24.6478 52.6846 24.5092C52.553 24.3706 52.4871 24.1731 52.4871 23.9166V23.2201L52.6431 23.6255C52.4906 23.979 52.2723 24.2528 51.9881 24.4468C51.704 24.6409 51.3678 24.7379 50.9797 24.7379ZM56.6438 26.5883C56.3874 26.5883 56.1898 26.519 56.0512 26.3804C55.9195 26.2487 55.8537 26.0512 55.8537 25.7879V20.2261C55.8537 19.9697 55.9195 19.7757 56.0512 19.644C56.1898 19.5054 56.3804 19.4361 56.623 19.4361C56.8794 19.4361 57.0735 19.5054 57.2051 19.644C57.3368 19.7757 57.4027 19.9697 57.4027 20.2261V20.9331L57.2883 20.5276C57.3923 20.195 57.6002 19.9281 57.9121 19.7272C58.2309 19.5192 58.5947 19.4153 59.0036 19.4153C59.4472 19.4153 59.8353 19.5227 60.1679 19.7376C60.5075 19.9524 60.7709 20.2573 60.958 20.6524C61.1451 21.0474 61.2387 21.5187 61.2387 22.0662C61.2387 22.6137 61.1451 23.0884 60.958 23.4904C60.7709 23.8924 60.511 24.2008 60.1783 24.4156C59.8457 24.6305 59.4541 24.7379 59.0036 24.7379C58.6016 24.7379 58.2447 24.6409 57.9328 24.4468C57.621 24.2458 57.4096 23.9859 57.2987 23.6671H57.4235V25.7879C57.4235 26.0512 57.3542 26.2487 57.2155 26.3804C57.0839 26.519 56.8933 26.5883 56.6438 26.5883ZM58.5358 23.5632C58.7576 23.5632 58.9516 23.5077 59.118 23.3968C59.2912 23.286 59.4229 23.1231 59.513 22.9082C59.61 22.6865 59.6585 22.4058 59.6585 22.0662C59.6585 21.5603 59.5546 21.1895 59.3467 20.9538C59.1387 20.7113 58.8685 20.59 58.5358 20.59C58.314 20.59 58.1165 20.642 57.9432 20.7459C57.7769 20.8499 57.6452 21.0128 57.5482 21.2345C57.4512 21.4494 57.4027 21.7266 57.4027 22.0662C57.4027 22.5721 57.5066 22.9498 57.7145 23.1993C57.9225 23.4419 58.1962 23.5632 58.5358 23.5632ZM65.4734 24.7379C64.8704 24.7379 64.3507 24.6305 63.914 24.4156C63.4843 24.1938 63.1517 23.8854 62.916 23.4904C62.6873 23.0884 62.573 22.6172 62.573 22.0766C62.573 21.5499 62.6839 21.089 62.9057 20.694C63.1274 20.292 63.4358 19.9801 63.8309 19.7583C64.2328 19.5296 64.6868 19.4153 65.1927 19.4153C65.56 19.4153 65.8927 19.4777 66.1907 19.6024C66.4887 19.7202 66.7451 19.8935 66.96 20.1222C67.1748 20.344 67.3377 20.6177 67.4486 20.9435C67.5595 21.2623 67.6149 21.6192 67.6149 22.0142C67.6149 22.1459 67.5733 22.2464 67.4902 22.3157C67.407 22.3781 67.2857 22.4092 67.1263 22.4092H63.8621V21.5984H66.4818L66.3154 21.7439C66.3154 21.4598 66.2739 21.2241 66.1907 21.037C66.1075 20.843 65.9862 20.6974 65.8268 20.6004C65.6744 20.5034 65.4838 20.4549 65.2551 20.4549C64.9987 20.4549 64.7803 20.5138 64.6002 20.6316C64.42 20.7494 64.2814 20.9192 64.1843 21.141C64.0873 21.3627 64.0388 21.6296 64.0388 21.9414V22.0246C64.0388 22.5513 64.1601 22.9394 64.4026 23.1889C64.6521 23.4384 65.0194 23.5632 65.5046 23.5632C65.6709 23.5632 65.8615 23.5424 66.0763 23.5008C66.2912 23.4592 66.4922 23.3934 66.6793 23.3033C66.8387 23.227 66.9808 23.2028 67.1055 23.2305C67.2303 23.2513 67.3273 23.3067 67.3966 23.3968C67.4659 23.4869 67.504 23.5909 67.511 23.7087C67.5248 23.8265 67.5006 23.9443 67.4382 24.0622C67.3758 24.1731 67.2718 24.2666 67.1263 24.3429C66.8907 24.4745 66.6239 24.5716 66.3258 24.6339C66.0348 24.7032 65.7506 24.7379 65.4734 24.7379ZM69.9626 24.7171C69.6992 24.7171 69.4982 24.6478 69.3596 24.5092C69.221 24.3706 69.1517 24.1731 69.1517 23.9166V20.2261C69.1517 19.9697 69.2175 19.7757 69.3492 19.644C69.4878 19.5054 69.6784 19.4361 69.921 19.4361C70.1705 19.4361 70.3611 19.5054 70.4927 19.644C70.6244 19.7757 70.6903 19.9697 70.6903 20.2261V20.7667H70.5863C70.6695 20.3509 70.8531 20.0286 71.1373 19.7999C71.4214 19.5712 71.7887 19.443 72.2392 19.4153C72.4125 19.4014 72.5442 19.4465 72.6342 19.5504C72.7313 19.6475 72.7833 19.8103 72.7902 20.039C72.804 20.2539 72.759 20.4237 72.655 20.5484C72.558 20.6732 72.3917 20.7494 72.156 20.7771L71.9169 20.7979C71.5219 20.8326 71.2274 20.9469 71.0333 21.141C70.8462 21.335 70.7526 21.6157 70.7526 21.983V23.9166C70.7526 24.1731 70.6833 24.3706 70.5447 24.5092C70.413 24.6478 70.219 24.7171 69.9626 24.7171ZM75.0056 24.7171C74.7422 24.7171 74.5413 24.6443 74.4027 24.4988C74.264 24.3532 74.1947 24.1488 74.1947 23.8854V18.0327C74.1947 17.7693 74.264 17.5648 74.4027 17.4193C74.5413 17.2738 74.7422 17.201 75.0056 17.201C75.262 17.201 75.4596 17.2738 75.5982 17.4193C75.7368 17.5648 75.8061 17.7693 75.8061 18.0327V23.8854C75.8061 24.1488 75.7368 24.3532 75.5982 24.4988C75.4665 24.6443 75.269 24.7171 75.0056 24.7171ZM78.5596 24.7171C78.3032 24.7171 78.1057 24.6478 77.9671 24.5092C77.8354 24.3706 77.7696 24.1731 77.7696 23.9166V20.2261C77.7696 19.9697 77.8354 19.7757 77.9671 19.644C78.1057 19.5054 78.2963 19.4361 78.5389 19.4361C78.7883 19.4361 78.9789 19.5054 79.1106 19.644C79.2423 19.7757 79.3081 19.9697 79.3081 20.2261V20.8187L79.1938 20.4756C79.3532 20.1361 79.5888 19.8762 79.9007 19.696C80.2195 19.5088 80.5799 19.4153 80.9818 19.4153C81.3907 19.4153 81.7269 19.495 81.9902 19.6544C82.2536 19.8069 82.4511 20.0425 82.5828 20.3613C82.7145 20.6732 82.7803 21.0717 82.7803 21.5568V23.9166C82.7803 24.1731 82.711 24.3706 82.5724 24.5092C82.4407 24.6478 82.2467 24.7171 81.9902 24.7171C81.7407 24.7171 81.5467 24.6478 81.4081 24.5092C81.2764 24.3706 81.2106 24.1731 81.2106 23.9166V21.6296C81.2106 21.2761 81.1447 21.0232 81.013 20.8707C80.8883 20.7113 80.6942 20.6316 80.4309 20.6316C80.0982 20.6316 79.8314 20.7355 79.6304 20.9435C79.4363 21.1514 79.3393 21.4286 79.3393 21.7751V23.9166C79.3393 24.4503 79.0794 24.7171 78.5596 24.7171ZM87.0813 24.7379C86.6031 24.7379 86.2011 24.6582 85.8754 24.4988C85.5566 24.3394 85.3175 24.1072 85.1581 23.8023C85.0056 23.4973 84.9294 23.1127 84.9294 22.6483V20.694H84.4928C84.2987 20.694 84.1462 20.642 84.0353 20.538C83.9314 20.4341 83.8794 20.292 83.8794 20.1118C83.8794 19.9177 83.9314 19.7722 84.0353 19.6752C84.1462 19.5712 84.2987 19.5192 84.4928 19.5192H84.9294V18.7292C84.9294 18.4658 84.9987 18.2683 85.1373 18.1366C85.2759 17.998 85.4699 17.9287 85.7194 17.9287C85.9759 17.9287 86.1699 17.998 86.3016 18.1366C86.4333 18.2683 86.4991 18.4658 86.4991 18.7292V19.5192H87.4867C87.6808 19.5192 87.8298 19.5712 87.9337 19.6752C88.0377 19.7722 88.0897 19.9177 88.0897 20.1118C88.0897 20.292 88.0377 20.4341 87.9337 20.538C87.8298 20.642 87.6808 20.694 87.4867 20.694H86.4991V22.586C86.4991 22.8771 86.565 23.0954 86.6966 23.2409C86.8353 23.3864 87.0536 23.4592 87.3516 23.4592C87.4555 23.4592 87.5526 23.4488 87.6427 23.428C87.7327 23.4072 87.8159 23.3934 87.8921 23.3864C87.9892 23.3795 88.0689 23.4107 88.1312 23.48C88.1936 23.5424 88.2248 23.6845 88.2248 23.9062C88.2248 24.0726 88.1971 24.2181 88.1416 24.3429C88.0862 24.4676 87.9892 24.5577 87.8506 24.6131C87.7605 24.6478 87.6357 24.6755 87.4763 24.6963C87.3238 24.724 87.1922 24.7379 87.0813 24.7379ZM92.0028 24.7379C91.3998 24.7379 90.88 24.6305 90.4434 24.4156C90.0137 24.1938 89.6811 23.8854 89.4454 23.4904C89.2167 23.0884 89.1024 22.6172 89.1024 22.0766C89.1024 21.5499 89.2132 21.089 89.435 20.694C89.6568 20.292 89.9652 19.9801 90.3602 19.7583C90.7622 19.5296 91.2162 19.4153 91.7221 19.4153C92.0894 19.4153 92.4221 19.4777 92.7201 19.6024C93.0181 19.7202 93.2745 19.8935 93.4893 20.1222C93.7042 20.344 93.8671 20.6177 93.9779 20.9435C94.0888 21.2623 94.1443 21.6192 94.1443 22.0142C94.1443 22.1459 94.1027 22.2464 94.0195 22.3157C93.9364 22.3781 93.8151 22.4092 93.6557 22.4092H90.3914V21.5984H93.0111L92.8448 21.7439C92.8448 21.4598 92.8032 21.2241 92.7201 21.037C92.6369 20.843 92.5156 20.6974 92.3562 20.6004C92.2037 20.5034 92.0132 20.4549 91.7844 20.4549C91.528 20.4549 91.3097 20.5138 91.1295 20.6316C90.9493 20.7494 90.8107 20.9192 90.7137 21.141C90.6167 21.3627 90.5682 21.6296 90.5682 21.9414V22.0246C90.5682 22.5513 90.6894 22.9394 90.932 23.1889C91.1815 23.4384 91.5488 23.5632 92.0339 23.5632C92.2003 23.5632 92.3909 23.5424 92.6057 23.5008C92.8206 23.4592 93.0215 23.3934 93.2087 23.3033C93.3681 23.227 93.5101 23.2028 93.6349 23.2305C93.7596 23.2513 93.8567 23.3067 93.926 23.3968C93.9953 23.4869 94.0334 23.5909 94.0403 23.7087C94.0542 23.8265 94.0299 23.9443 93.9675 24.0622C93.9052 24.1731 93.8012 24.2666 93.6557 24.3429C93.42 24.4745 93.1532 24.5716 92.8552 24.6339C92.5641 24.7032 92.28 24.7379 92.0028 24.7379ZM97.5211 24.7379C96.9043 24.7379 96.4434 24.5681 96.1385 24.2285C95.8335 23.882 95.6811 23.3691 95.6811 22.6899V18.0015C95.6811 17.7381 95.7469 17.5406 95.8786 17.4089C96.0172 17.2703 96.2147 17.201 96.4711 17.201C96.7206 17.201 96.9112 17.2703 97.0429 17.4089C97.1815 17.5406 97.2508 17.7381 97.2508 18.0015V22.6276C97.2508 22.9117 97.3097 23.1231 97.4275 23.2617C97.5523 23.3934 97.7151 23.4592 97.9161 23.4592C97.9716 23.4592 98.0236 23.4558 98.0721 23.4488C98.1206 23.4419 98.1726 23.4384 98.228 23.4384C98.3389 23.4246 98.4151 23.4592 98.4567 23.5424C98.5052 23.6186 98.5295 23.7746 98.5295 24.0102C98.5295 24.2181 98.4879 24.3775 98.4047 24.4884C98.3216 24.5923 98.1934 24.6617 98.0201 24.6963C97.9508 24.7032 97.8711 24.7102 97.781 24.7171C97.6909 24.731 97.6043 24.7379 97.5211 24.7379ZM101.607 24.7379C100.99 24.7379 100.529 24.5681 100.224 24.2285C99.9191 23.882 99.7666 23.3691 99.7666 22.6899V18.0015C99.7666 17.7381 99.8325 17.5406 99.9642 17.4089C100.103 17.2703 100.3 17.201 100.557 17.201C100.806 17.201 100.997 17.2703 101.128 17.4089C101.267 17.5406 101.336 17.7381 101.336 18.0015V22.6276C101.336 22.9117 101.395 23.1231 101.513 23.2617C101.638 23.3934 101.801 23.4592 102.002 23.4592C102.057 23.4592 102.109 23.4558 102.158 23.4488C102.206 23.4419 102.258 23.4384 102.314 23.4384C102.424 23.4246 102.501 23.4592 102.542 23.5424C102.591 23.6186 102.615 23.7746 102.615 24.0102C102.615 24.2181 102.573 24.3775 102.49 24.4884C102.407 24.5923 102.279 24.6617 102.106 24.6963C102.036 24.7032 101.957 24.7102 101.867 24.7171C101.776 24.731 101.69 24.7379 101.607 24.7379ZM104.642 24.7067C104.386 24.7067 104.188 24.6339 104.05 24.4884C103.918 24.3359 103.852 24.1245 103.852 23.8543V20.2989C103.852 20.0217 103.918 19.8103 104.05 19.6648C104.188 19.5123 104.386 19.4361 104.642 19.4361C104.892 19.4361 105.082 19.5123 105.214 19.6648C105.353 19.8103 105.422 20.0217 105.422 20.2989V23.8543C105.422 24.1245 105.356 24.3359 105.224 24.4884C105.093 24.6339 104.899 24.7067 104.642 24.7067ZM104.642 18.5836C104.351 18.5836 104.126 18.5178 103.967 18.3861C103.814 18.2475 103.738 18.0534 103.738 17.8039C103.738 17.5475 103.814 17.3535 103.967 17.2218C104.126 17.0832 104.351 17.0139 104.642 17.0139C104.933 17.0139 105.155 17.0832 105.308 17.2218C105.46 17.3535 105.536 17.5475 105.536 17.8039C105.536 18.0534 105.46 18.2475 105.308 18.3861C105.155 18.5178 104.933 18.5836 104.642 18.5836ZM109.711 26.6091C109.337 26.6091 108.976 26.5779 108.63 26.5156C108.29 26.4532 107.989 26.3596 107.725 26.2349C107.566 26.1656 107.452 26.0755 107.382 25.9646C107.32 25.8537 107.292 25.7359 107.299 25.6111C107.313 25.4864 107.355 25.3755 107.424 25.2785C107.5 25.1814 107.594 25.1121 107.705 25.0706C107.816 25.0359 107.933 25.0463 108.058 25.1017C108.363 25.2403 108.644 25.3304 108.9 25.372C109.164 25.4136 109.389 25.4344 109.576 25.4344C110.019 25.4344 110.352 25.3339 110.574 25.1329C110.796 24.9319 110.907 24.6235 110.907 24.2077V23.4176H111C110.896 23.7364 110.681 23.9963 110.356 24.1973C110.03 24.3983 109.669 24.4988 109.274 24.4988C108.817 24.4988 108.419 24.3948 108.079 24.1869C107.739 23.9721 107.476 23.6741 107.289 23.2929C107.102 22.9048 107.008 22.4578 107.008 21.9518C107.008 21.5707 107.06 21.2241 107.164 20.9123C107.275 20.6004 107.427 20.3336 107.622 20.1118C107.822 19.89 108.062 19.7202 108.339 19.6024C108.623 19.4777 108.935 19.4153 109.274 19.4153C109.683 19.4153 110.044 19.5158 110.356 19.7168C110.674 19.9108 110.886 20.1672 110.99 20.486L110.886 20.8187V20.2261C110.886 19.9697 110.952 19.7757 111.083 19.644C111.222 19.5054 111.416 19.4361 111.665 19.4361C111.915 19.4361 112.106 19.5054 112.237 19.644C112.369 19.7757 112.435 19.9697 112.435 20.2261V24.031C112.435 24.8834 112.199 25.5245 111.728 25.9542C111.263 26.3908 110.591 26.6091 109.711 26.6091ZM109.742 23.3241C109.978 23.3241 110.179 23.2686 110.345 23.1577C110.518 23.0469 110.654 22.8909 110.751 22.6899C110.848 22.482 110.896 22.236 110.896 21.9518C110.896 21.5221 110.789 21.1895 110.574 20.9538C110.366 20.7113 110.089 20.59 109.742 20.59C109.507 20.59 109.302 20.6454 109.129 20.7563C108.956 20.8603 108.82 21.0162 108.723 21.2241C108.633 21.4251 108.588 21.6677 108.588 21.9518C108.588 22.3815 108.692 22.7177 108.9 22.9602C109.108 23.2028 109.389 23.3241 109.742 23.3241ZM116.928 24.7379C116.325 24.7379 115.805 24.6305 115.369 24.4156C114.939 24.1938 114.606 23.8854 114.371 23.4904C114.142 23.0884 114.028 22.6172 114.028 22.0766C114.028 21.5499 114.139 21.089 114.36 20.694C114.582 20.292 114.891 19.9801 115.286 19.7583C115.688 19.5296 116.141 19.4153 116.647 19.4153C117.015 19.4153 117.347 19.4777 117.645 19.6024C117.943 19.7202 118.2 19.8935 118.415 20.1222C118.63 20.344 118.792 20.6177 118.903 20.9435C119.014 21.2623 119.07 21.6192 119.07 22.0142C119.07 22.1459 119.028 22.2464 118.945 22.3157C118.862 22.3781 118.74 22.4092 118.581 22.4092H115.317V21.5984H117.936L117.77 21.7439C117.77 21.4598 117.729 21.2241 117.645 21.037C117.562 20.843 117.441 20.6974 117.282 20.6004C117.129 20.5034 116.938 20.4549 116.71 20.4549C116.453 20.4549 116.235 20.5138 116.055 20.6316C115.875 20.7494 115.736 20.9192 115.639 21.141C115.542 21.3627 115.493 21.6296 115.493 21.9414V22.0246C115.493 22.5513 115.615 22.9394 115.857 23.1889C116.107 23.4384 116.474 23.5632 116.959 23.5632C117.126 23.5632 117.316 23.5424 117.531 23.5008C117.746 23.4592 117.947 23.3934 118.134 23.3033C118.293 23.227 118.435 23.2028 118.56 23.2305C118.685 23.2513 118.782 23.3067 118.851 23.3968C118.921 23.4869 118.959 23.5909 118.966 23.7087C118.98 23.8265 118.955 23.9443 118.893 24.0622C118.831 24.1731 118.727 24.2666 118.581 24.3429C118.345 24.4745 118.079 24.5716 117.781 24.6339C117.489 24.7032 117.205 24.7379 116.928 24.7379ZM121.396 24.7171C121.14 24.7171 120.943 24.6478 120.804 24.5092C120.672 24.3706 120.606 24.1731 120.606 23.9166V20.2261C120.606 19.9697 120.672 19.7757 120.804 19.644C120.943 19.5054 121.133 19.4361 121.376 19.4361C121.625 19.4361 121.816 19.5054 121.947 19.644C122.079 19.7757 122.145 19.9697 122.145 20.2261V20.8187L122.031 20.4756C122.19 20.1361 122.426 19.8762 122.738 19.696C123.056 19.5088 123.417 19.4153 123.819 19.4153C124.228 19.4153 124.564 19.495 124.827 19.6544C125.09 19.8069 125.288 20.0425 125.42 20.3613C125.551 20.6732 125.617 21.0717 125.617 21.5568V23.9166C125.617 24.1731 125.548 24.3706 125.409 24.5092C125.278 24.6478 125.083 24.7171 124.827 24.7171C124.578 24.7171 124.384 24.6478 124.245 24.5092C124.113 24.3706 124.047 24.1731 124.047 23.9166V21.6296C124.047 21.2761 123.982 21.0232 123.85 20.8707C123.725 20.7113 123.531 20.6316 123.268 20.6316C122.935 20.6316 122.668 20.7355 122.467 20.9435C122.273 21.1514 122.176 21.4286 122.176 21.7751V23.9166C122.176 24.4503 121.916 24.7171 121.396 24.7171ZM129.897 24.7379C129.343 24.7379 128.858 24.6305 128.442 24.4156C128.033 24.1938 127.718 23.882 127.496 23.48C127.274 23.078 127.163 22.6033 127.163 22.0558C127.163 21.6469 127.226 21.2796 127.35 20.9538C127.475 20.6281 127.655 20.3509 127.891 20.1222C128.134 19.8935 128.425 19.7202 128.764 19.6024C129.104 19.4777 129.481 19.4153 129.897 19.4153C130.112 19.4153 130.341 19.443 130.583 19.4984C130.826 19.547 131.065 19.6336 131.301 19.7583C131.439 19.8207 131.533 19.9108 131.581 20.0286C131.637 20.1395 131.658 20.2573 131.644 20.3821C131.63 20.4999 131.585 20.6073 131.509 20.7044C131.439 20.7944 131.349 20.8568 131.238 20.8915C131.127 20.9192 131.003 20.8984 130.864 20.8291C130.732 20.7529 130.594 20.6974 130.448 20.6628C130.31 20.6281 130.178 20.6108 130.053 20.6108C129.845 20.6108 129.662 20.6454 129.502 20.7147C129.343 20.7771 129.208 20.8707 129.097 20.9954C128.993 21.1132 128.91 21.2623 128.847 21.4424C128.792 21.6226 128.764 21.8306 128.764 22.0662C128.764 22.5236 128.875 22.884 129.097 23.1473C129.326 23.4038 129.644 23.532 130.053 23.532C130.178 23.532 130.31 23.5181 130.448 23.4904C130.587 23.4558 130.726 23.4003 130.864 23.3241C131.003 23.2548 131.127 23.2374 131.238 23.2721C131.349 23.3067 131.436 23.3726 131.498 23.4696C131.568 23.5597 131.606 23.6671 131.613 23.7919C131.626 23.9097 131.606 24.0275 131.55 24.1453C131.502 24.2562 131.412 24.3429 131.28 24.4052C131.044 24.523 130.809 24.6062 130.573 24.6547C130.337 24.7102 130.112 24.7379 129.897 24.7379ZM135.55 24.7379C134.947 24.7379 134.427 24.6305 133.991 24.4156C133.561 24.1938 133.229 23.8854 132.993 23.4904C132.764 23.0884 132.65 22.6172 132.65 22.0766C132.65 21.5499 132.761 21.089 132.982 20.694C133.204 20.292 133.513 19.9801 133.908 19.7583C134.31 19.5296 134.764 19.4153 135.27 19.4153C135.637 19.4153 135.97 19.4777 136.268 19.6024C136.566 19.7202 136.822 19.8935 137.037 20.1222C137.252 20.344 137.415 20.6177 137.525 20.9435C137.636 21.2623 137.692 21.6192 137.692 22.0142C137.692 22.1459 137.65 22.2464 137.567 22.3157C137.484 22.3781 137.363 22.4092 137.203 22.4092H133.939V21.5984H136.559L136.392 21.7439C136.392 21.4598 136.351 21.2241 136.268 21.037C136.184 20.843 136.063 20.6974 135.904 20.6004C135.751 20.5034 135.561 20.4549 135.332 20.4549C135.075 20.4549 134.857 20.5138 134.677 20.6316C134.497 20.7494 134.358 20.9192 134.261 21.141C134.164 21.3627 134.116 21.6296 134.116 21.9414V22.0246C134.116 22.5513 134.237 22.9394 134.479 23.1889C134.729 23.4384 135.096 23.5632 135.581 23.5632C135.748 23.5632 135.938 23.5424 136.153 23.5008C136.368 23.4592 136.569 23.3934 136.756 23.3033C136.916 23.227 137.058 23.2028 137.182 23.2305C137.307 23.2513 137.404 23.3067 137.473 23.3968C137.543 23.4869 137.581 23.5909 137.588 23.7087C137.602 23.8265 137.577 23.9443 137.515 24.0622C137.453 24.1731 137.349 24.2666 137.203 24.3429C136.968 24.4745 136.701 24.5716 136.403 24.6339C136.112 24.7032 135.827 24.7379 135.55 24.7379Z" fill="url(#paint0_linear_61_376)"/>
<path d="M16.6809 23.4046C16.6809 24.0903 16.4085 24.748 15.9236 25.2329C15.4387 25.7179 14.781 25.9903 14.0952 25.9903C13.4094 25.9903 12.7518 25.7179 12.2669 25.2329C11.7819 24.748 11.5095 24.0903 11.5095 23.4046C11.5095 22.7188 11.7819 22.0611 12.2669 21.5762C12.7518 21.0913 13.4094 20.8188 14.0952 20.8188C14.781 20.8188 15.4387 21.0913 15.9236 21.5762C16.4085 22.0611 16.6809 22.7188 16.6809 23.4046ZM31.7972 23.4046C31.7972 24.0903 31.5248 24.748 31.0399 25.2329C30.555 25.7179 29.8973 25.9903 29.2115 25.9903C28.5258 25.9903 27.8681 25.7179 27.3832 25.2329C26.8983 24.748 26.6259 24.0903 26.6259 23.4046C26.6259 22.7188 26.8983 22.0611 27.3832 21.5762C27.8681 21.0913 28.5258 20.8188 29.2115 20.8188C29.8973 20.8188 30.555 21.0913 31.0399 21.5762C31.5248 22.0611 31.7972 22.7188 31.7972 23.4046Z" fill="#FDBB11"/>
<path d="M27.3896 12.2972C26.173 11.3782 24.6912 10.8786 23.1666 10.873H20.1385C18.6285 10.873 17.151 11.3743 15.9171 12.2972C13.8143 13.8804 12.6774 16.5139 12.9376 19.2118L13.652 25.6641C13.8875 28.1631 15.5431 30.2635 17.8408 30.9795C20.3255 31.7513 22.9804 31.7513 25.4642 30.9795C27.7611 30.2635 29.4183 28.1631 29.653 25.6649L30.3675 19.2118C30.6269 16.5147 29.4907 13.8812 27.388 12.298" fill="#FFC83D"/>
<path d="M21.6473 26.7564C20.8141 26.7606 19.9926 26.5604 19.2549 26.1732C19.017 26.0459 18.764 26.3172 18.9144 26.5487C19.2085 27.0089 19.6138 27.3876 20.0928 27.6499C20.5718 27.9123 21.1091 28.0499 21.6552 28.05C22.2012 28.0492 22.7382 27.9113 23.2171 27.649C23.696 27.3867 24.1013 27.0083 24.396 26.5487C24.5392 26.3259 24.2926 26.0538 24.0555 26.1732C23.3113 26.5584 22.4852 26.7584 21.6473 26.7564Z" fill="#990839"/>
<path d="M21.6549 25.7115C22.0392 25.7115 22.3821 25.5166 22.5778 25.2238C22.6188 25.1634 22.6425 25.0928 22.6464 25.0199C22.6503 24.9469 22.6341 24.8743 22.5997 24.8098C22.5653 24.7454 22.514 24.6916 22.4512 24.6542C22.3885 24.6168 22.3167 24.5972 22.2436 24.5977H21.0669C20.7407 24.5977 20.5442 24.9636 20.732 25.2238C20.9277 25.5245 21.2714 25.7115 21.6549 25.7115Z" fill="#ED9200"/>
<path d="M14.7874 23.3231C15.0818 22.1122 16.1638 21.2163 17.4447 21.2163C18.7733 21.2163 19.8872 22.1846 20.1338 23.4599C20.1895 23.7424 19.9667 24.0009 19.6883 24.0009H15.3125C15.2298 24.0007 15.1483 23.9816 15.0741 23.9451C14.9999 23.9086 14.935 23.8557 14.8843 23.7903C14.8337 23.7249 14.7986 23.6489 14.7818 23.5679C14.765 23.4869 14.7669 23.4032 14.7874 23.3231ZM28.058 23.3231C27.7636 22.1122 26.6816 21.2163 25.4007 21.2163C24.0641 21.2163 22.9582 22.1846 22.7115 23.4599C22.6559 23.7424 22.8786 24.0009 23.1571 24.0009H27.5329C27.8829 24.0009 28.1455 23.67 28.058 23.3231Z" fill="white"/>
<path d="M16.1001 23.5399C16.1001 22.5772 16.8798 21.7896 17.8504 21.7896C18.821 21.7896 19.6007 22.5772 19.6087 23.5399C19.6087 23.699 19.5848 23.8502 19.545 24.0013H16.1637C16.124 23.8581 16.1001 23.699 16.1001 23.5399ZM26.7452 23.5399C26.7452 23.0757 26.5608 22.6305 26.2325 22.3022C25.9043 21.974 25.4591 21.7896 24.9949 21.7896C24.0242 21.7896 23.2366 22.5772 23.2366 23.5399C23.2366 23.699 23.2605 23.8502 23.3002 24.0013H26.6815C26.7213 23.8581 26.7452 23.699 26.7452 23.5399Z" fill="#7D4533"/>
<path d="M17.8501 22.5376C18.407 22.5376 18.8526 22.9831 18.8526 23.5401C18.8526 23.7071 18.8048 23.8663 18.7332 24.0015H16.959C16.8874 23.8663 16.8477 23.7071 16.8477 23.5401C16.8477 22.9831 17.2932 22.5376 17.8501 22.5376ZM24.9946 22.5376C24.4376 22.5376 23.9921 22.9831 23.9921 23.5401C23.9921 23.7071 24.0319 23.8663 24.1115 24.0015H25.8856C25.9572 23.8663 25.997 23.7071 25.997 23.5401C25.997 22.9831 25.5515 22.5376 24.9946 22.5376Z" fill="black"/>
<path d="M17.3015 22.8552C17.3015 22.9375 17.2688 23.0164 17.2106 23.0746C17.1524 23.1328 17.0735 23.1655 16.9912 23.1655C16.9089 23.1655 16.83 23.1328 16.7718 23.0746C16.7136 23.0164 16.6809 22.9375 16.6809 22.8552C16.6809 22.7729 16.7136 22.694 16.7718 22.6358C16.83 22.5776 16.9089 22.5449 16.9912 22.5449C17.0735 22.5449 17.1524 22.5776 17.2106 22.6358C17.2688 22.694 17.3015 22.7729 17.3015 22.8552ZM24.7562 22.8552C24.7562 22.9375 24.7235 23.0164 24.6653 23.0746C24.6071 23.1328 24.5282 23.1655 24.4459 23.1655C24.3636 23.1655 24.2847 23.1328 24.2265 23.0746C24.1683 23.0164 24.1356 22.9375 24.1356 22.8552C24.1356 22.7729 24.1683 22.694 24.2265 22.6358C24.2847 22.5776 24.3636 22.5449 24.4459 22.5449C24.5282 22.5449 24.6071 22.5776 24.6653 22.6358C24.7235 22.694 24.7562 22.7729 24.7562 22.8552Z" fill="white"/>
<path d="M16.5999 20.0636C17.0144 19.9165 17.6087 19.8043 18.3939 19.8783C18.4469 19.8851 18.5006 19.8812 18.552 19.8668C18.6034 19.8524 18.6514 19.8278 18.6931 19.7945C18.7348 19.7611 18.7693 19.7198 18.7947 19.6728C18.8201 19.6259 18.8357 19.5743 18.8407 19.5211C18.8458 19.468 18.84 19.4144 18.8239 19.3635C18.8078 19.3127 18.7816 19.2655 18.7469 19.225C18.7122 19.1845 18.6696 19.1513 18.6219 19.1275C18.5741 19.1038 18.522 19.0899 18.4687 19.0866C17.5673 19.0015 16.8568 19.128 16.3325 19.3142C16.2332 19.3496 16.1519 19.4231 16.1067 19.5185C16.0615 19.6138 16.056 19.7232 16.0915 19.8226C16.1269 19.922 16.2004 20.0032 16.2958 20.0484C16.3911 20.0936 16.5005 20.0991 16.5999 20.0636ZM26.6005 19.315C26.0762 19.128 25.3657 19.0015 24.4643 19.0866C24.4111 19.0899 24.359 19.1038 24.3112 19.1275C24.2634 19.1513 24.2209 19.1845 24.1862 19.225C24.1515 19.2655 24.1253 19.3127 24.1092 19.3635C24.093 19.4144 24.0873 19.468 24.0923 19.5211C24.0973 19.5743 24.113 19.6259 24.1384 19.6728C24.1637 19.7198 24.1983 19.7611 24.24 19.7945C24.2817 19.8278 24.3296 19.8524 24.381 19.8668C24.4324 19.8812 24.4862 19.8851 24.5391 19.8783C25.3244 19.8043 25.9187 19.9165 26.3332 20.0636C26.4326 20.0991 26.542 20.0936 26.6373 20.0484C26.7327 20.0032 26.8061 19.922 26.8416 19.8226C26.877 19.7232 26.8715 19.6138 26.8263 19.5185C26.7811 19.4231 26.6999 19.3504 26.6005 19.315Z" fill="#D37034"/>
<path d="M21.5103 9.2825C20.8935 9.27468 20.2862 9.43496 19.7536 9.74612C19.221 10.0573 18.7832 10.5076 18.4871 11.0487C18.9803 10.9374 19.4816 10.8737 19.9828 10.8737H20.1021C21.5421 10.8737 22.7515 12.0512 22.7435 13.4912C22.7355 14.1436 22.4969 14.7324 22.0991 15.1859C22.0349 15.2563 21.9958 15.346 21.988 15.441C21.9801 15.536 22.004 15.6309 22.0558 15.7109C22.1076 15.7908 22.1844 15.8514 22.2743 15.8831C22.3642 15.9148 22.462 15.9158 22.5526 15.886C23.2238 15.658 23.8067 15.2253 24.2191 14.6487C24.6316 14.0721 24.8529 13.3807 24.8518 12.6718C24.8598 10.826 23.3561 9.30637 21.5103 9.2825Z" fill="#F1A11E"/>
<defs>
<linearGradient id="paint0_linear_61_376" x1="41.2117" y1="21.3485" x2="145.169" y2="21.3485" gradientUnits="userSpaceOnUse">
<stop stop-color="#FFA5EE"/>
<stop offset="0.269231" stop-color="#8FFFC7"/>
<stop offset="0.524038" stop-color="#5DC1FF"/>
<stop offset="0.706731" stop-color="#D6D874"/>
<stop offset="1" stop-color="#FFA0A0"/>
</linearGradient>
</defs>
</svg>
