<svg width="151" height="42" viewBox="0 0 151 42" fill="none" xmlns="http://www.w3.org/2000/svg">
<g clip-path="url(#clip0_61_344)">
<rect width="150.738" height="41.2116" rx="8.91061" fill="black" fill-opacity="0.2"/>
<path d="M42.2253 24.7243C42.0173 24.7243 41.8466 24.676 41.7129 24.5795C41.5867 24.4829 41.505 24.353 41.4678 24.1896C41.4381 24.0263 41.4716 23.8443 41.5681 23.6439L44.4195 17.3953C44.5383 17.1428 44.6794 16.9609 44.8427 16.8495C45.0061 16.7307 45.1955 16.6713 45.4108 16.6713C45.6261 16.6713 45.8155 16.7307 45.9788 16.8495C46.1422 16.9609 46.2796 17.1428 46.391 17.3953L49.2646 23.6439C49.3612 23.8443 49.3946 24.03 49.3649 24.2008C49.3426 24.3641 49.2683 24.4941 49.1421 24.5906C49.0159 24.6797 48.8525 24.7243 48.652 24.7243C48.3996 24.7243 48.2028 24.6649 48.0617 24.5461C47.928 24.4272 47.8092 24.2416 47.7053 23.9891L47.037 22.4409L47.7276 22.9199H43.0829L43.7735 22.4409L43.1163 23.9891C43.0049 24.249 42.8861 24.4384 42.7599 24.5572C42.6411 24.6686 42.4629 24.7243 42.2253 24.7243ZM45.3885 18.6094L43.9628 22.0065L43.6621 21.5721H47.1484L46.8476 22.0065L45.4108 18.6094H45.3885ZM51.7588 26.7292C51.4841 26.7292 51.2724 26.6549 51.1239 26.5064C50.9829 26.3653 50.9123 26.1537 50.9123 25.8715V19.9125C50.9123 19.6378 50.9829 19.4299 51.1239 19.2888C51.2724 19.1403 51.4767 19.066 51.7365 19.066C52.0113 19.066 52.2192 19.1403 52.3603 19.2888C52.5014 19.4299 52.5719 19.6378 52.5719 19.9125V20.6699L52.4494 20.2355C52.5608 19.8791 52.7835 19.5932 53.1177 19.3779C53.4593 19.1551 53.8491 19.0438 54.2872 19.0438C54.7624 19.0438 55.1783 19.1588 55.5347 19.389C55.8985 19.6192 56.1807 19.946 56.3812 20.3692C56.5817 20.7925 56.6819 21.2974 56.6819 21.884C56.6819 22.4706 56.5817 22.9793 56.3812 23.41C56.1807 23.8406 55.9023 24.1711 55.5458 24.4013C55.1894 24.6314 54.7699 24.7465 54.2872 24.7465C53.8565 24.7465 53.4741 24.6426 53.14 24.4347C52.8058 24.2193 52.5793 23.9409 52.4605 23.5993H52.5942V25.8715C52.5942 26.1537 52.5199 26.3653 52.3714 26.5064C52.2303 26.6549 52.0261 26.7292 51.7588 26.7292ZM53.786 23.4879C54.0236 23.4879 54.2315 23.4285 54.4097 23.3097C54.5954 23.1909 54.7364 23.0164 54.833 22.7862C54.9369 22.5486 54.9889 22.2479 54.9889 21.884C54.9889 21.3419 54.8775 20.9447 54.6548 20.6922C54.432 20.4323 54.1424 20.3024 53.786 20.3024C53.5484 20.3024 53.3367 20.3581 53.1511 20.4695C52.9729 20.5808 52.8318 20.7553 52.7278 20.993C52.6239 21.2231 52.5719 21.5202 52.5719 21.884C52.5719 22.4261 52.6833 22.8308 52.9061 23.0981C53.1288 23.358 53.4221 23.4879 53.786 23.4879ZM59.2254 26.7292C58.9506 26.7292 58.739 26.6549 58.5905 26.5064C58.4494 26.3653 58.3789 26.1537 58.3789 25.8715V19.9125C58.3789 19.6378 58.4494 19.4299 58.5905 19.2888C58.739 19.1403 58.9432 19.066 59.2031 19.066C59.4778 19.066 59.6858 19.1403 59.8268 19.2888C59.9679 19.4299 60.0385 19.6378 60.0385 19.9125V20.6699L59.9159 20.2355C60.0273 19.8791 60.2501 19.5932 60.5842 19.3779C60.9258 19.1551 61.3157 19.0438 61.7538 19.0438C62.229 19.0438 62.6448 19.1588 63.0012 19.389C63.3651 19.6192 63.6473 19.946 63.8477 20.3692C64.0482 20.7925 64.1485 21.2974 64.1485 21.884C64.1485 22.4706 64.0482 22.9793 63.8477 23.41C63.6473 23.8406 63.3688 24.1711 63.0124 24.4013C62.656 24.6314 62.2364 24.7465 61.7538 24.7465C61.3231 24.7465 60.9407 24.6426 60.6065 24.4347C60.2724 24.2193 60.0459 23.9409 59.9271 23.5993H60.0607V25.8715C60.0607 26.1537 59.9865 26.3653 59.838 26.5064C59.6969 26.6549 59.4927 26.7292 59.2254 26.7292ZM61.2525 23.4879C61.4902 23.4879 61.6981 23.4285 61.8763 23.3097C62.0619 23.1909 62.203 23.0164 62.2995 22.7862C62.4035 22.5486 62.4555 22.2479 62.4555 21.884C62.4555 21.3419 62.3441 20.9447 62.1213 20.6922C61.8986 20.4323 61.609 20.3024 61.2525 20.3024C61.0149 20.3024 60.8033 20.3581 60.6177 20.4695C60.4394 20.5808 60.2984 20.7553 60.1944 20.993C60.0904 21.2231 60.0385 21.5202 60.0385 21.884C60.0385 22.4261 60.1498 22.8308 60.3726 23.0981C60.5954 23.358 60.8887 23.4879 61.2525 23.4879ZM67.9394 24.7465C67.6127 24.7465 67.2748 24.7168 66.9258 24.6574C66.5843 24.598 66.2724 24.4978 65.9902 24.3567C65.8417 24.2825 65.734 24.1896 65.6672 24.0782C65.6078 23.9594 65.5818 23.8406 65.5892 23.7218C65.5967 23.603 65.6338 23.4953 65.7006 23.3988C65.7749 23.3023 65.8677 23.2392 65.9791 23.2095C66.0979 23.1723 66.2278 23.1835 66.3689 23.2429C66.6734 23.3691 66.9518 23.4582 67.2043 23.5102C67.4567 23.5622 67.7055 23.5882 67.9505 23.5882C68.2698 23.5882 68.5 23.5399 68.6411 23.4434C68.7896 23.3394 68.8639 23.2058 68.8639 23.0424C68.8639 22.8939 68.8156 22.7825 68.7191 22.7082C68.6226 22.634 68.4815 22.582 68.2958 22.5523L67.1263 22.3407C66.6659 22.259 66.3095 22.0919 66.057 21.8395C65.812 21.5796 65.6895 21.2491 65.6895 20.8482C65.6895 20.4769 65.7934 20.1576 66.0013 19.8903C66.2093 19.6155 66.4951 19.4076 66.859 19.2665C67.2303 19.118 67.6498 19.0438 68.1176 19.0438C68.4518 19.0438 68.7599 19.0735 69.0421 19.1329C69.3243 19.1923 69.5953 19.2888 69.8552 19.4225C69.9888 19.4893 70.0817 19.5784 70.1336 19.6898C70.193 19.8012 70.2116 19.9163 70.1893 20.0351C70.1745 20.1539 70.1299 20.2615 70.0557 20.3581C69.9814 20.4546 69.8849 20.5177 69.7661 20.5474C69.6547 20.5771 69.5248 20.5623 69.3762 20.5029C69.1386 20.3915 68.9196 20.3135 68.7191 20.269C68.5186 20.217 68.3255 20.191 68.1399 20.191C67.8057 20.191 67.5644 20.2467 67.4159 20.3581C67.2674 20.462 67.1931 20.5957 67.1931 20.759C67.1931 20.8853 67.234 20.993 67.3157 21.0821C67.4048 21.1637 67.5384 21.2194 67.7166 21.2491L68.8862 21.4608C69.3688 21.5424 69.7364 21.7058 69.9888 21.9508C70.2413 22.1885 70.3675 22.5152 70.3675 22.931C70.3675 23.4953 70.1448 23.9409 69.6993 24.2676C69.2611 24.5869 68.6745 24.7465 67.9394 24.7465Z" fill="#73C7FF"/>
<path d="M15.408 25.7193L23.1542 25.2637L30.9004 25.7193H31.1802C31.2981 25.7193 31.4111 25.7412 31.5192 25.7849L35.067 27.2038C35.5773 27.408 35.9127 27.9028 35.9127 28.4532H10.3958C10.3958 27.9028 10.7311 27.408 11.2415 27.2038L14.7892 25.784C14.8971 25.7411 15.0121 25.7191 15.1282 25.7193H15.408Z" fill="url(#paint0_linear_61_344)"/>
<path d="M11.3071 27.542C11.0654 27.542 10.8336 27.638 10.6627 27.8089C10.4918 27.9798 10.3958 28.2116 10.3958 28.4533C10.3958 28.695 10.4918 28.9268 10.6627 29.0977C10.8336 29.2686 11.0654 29.3646 11.3071 29.3646H35.0014C35.2431 29.3646 35.4749 29.2686 35.6458 29.0977C35.8167 28.9268 35.9127 28.695 35.9127 28.4533C35.9127 28.2116 35.8167 27.9798 35.6458 27.8089C35.4749 27.638 35.2431 27.542 35.0014 27.542H11.3071Z" fill="url(#paint1_linear_61_344)"/>
<path d="M12.2185 14.0999C12.2185 13.3144 12.5306 12.5611 13.086 12.0057C13.6414 11.4502 14.3948 11.1382 15.1803 11.1382H31.1284C31.5173 11.1382 31.9025 11.2148 32.2618 11.3636C32.6211 11.5125 32.9477 11.7306 33.2227 12.0057C33.4977 12.2807 33.7159 12.6072 33.8647 12.9665C34.0136 13.3259 34.0902 13.711 34.0902 14.0999V22.7573C34.0902 23.1463 34.0136 23.5314 33.8647 23.8908C33.7159 24.2501 33.4977 24.5766 33.2227 24.8516C32.9477 25.1266 32.6211 25.3448 32.2618 25.4936C31.9025 25.6425 31.5173 25.7191 31.1284 25.7191H15.1803C14.7913 25.7191 14.4062 25.6425 14.0469 25.4936C13.6875 25.3448 13.361 25.1266 13.086 24.8516C12.811 24.5766 12.5928 24.2501 12.444 23.8908C12.2951 23.5314 12.2185 23.1463 12.2185 22.7573V14.0999Z" fill="url(#paint2_linear_61_344)"/>
<path d="M15.1802 11.1382C14.3947 11.1382 13.6413 11.4502 13.0859 12.0057C12.5304 12.5611 12.2184 13.3144 12.2184 14.0999V22.7573C12.2184 23.1463 12.295 23.5314 12.4438 23.8908C12.5927 24.2501 12.8109 24.5766 13.0859 24.8516C13.3609 25.1266 13.6874 25.3448 14.0468 25.4936C14.4061 25.6425 14.7912 25.7191 15.1802 25.7191H15.1282C15.0121 25.7192 14.897 25.7414 14.7892 25.7847L11.2415 27.2036C10.7311 27.4077 10.3958 27.9026 10.3958 28.453C10.3958 28.6947 10.4918 28.9265 10.6627 29.0974C10.8336 29.2683 11.0654 29.3643 11.3071 29.3643H35.0014C35.2431 29.3643 35.4749 29.2683 35.6458 29.0974C35.8167 28.9265 35.9127 28.6947 35.9127 28.453C35.9127 27.9026 35.5773 27.4077 35.067 27.2036L31.5192 25.7838C31.4114 25.7408 31.2963 25.7189 31.1802 25.7191H31.1283C31.5172 25.7191 31.9024 25.6425 32.2617 25.4936C32.621 25.3448 32.9475 25.1266 33.2226 24.8516C33.4976 24.5766 33.7158 24.2501 33.8646 23.8908C34.0134 23.5314 34.0901 23.1463 34.0901 22.7573V14.0999C34.0901 13.711 34.0134 13.3259 33.8646 12.9665C33.7158 12.6072 33.4976 12.2807 33.2226 12.0057C32.9475 11.7306 32.621 11.5125 32.2617 11.3636C31.9024 11.2148 31.5172 11.1382 31.1283 11.1382H15.1802Z" fill="url(#paint3_radial_61_344)" fill-opacity="0.3"/>
<path d="M10.3958 17.5176C10.3958 16.7925 10.6838 16.0971 11.1965 15.5844C11.7092 15.0717 12.4046 14.7837 13.1297 14.7837H18.5976C19.3227 14.7837 20.0181 15.0717 20.5308 15.5844C21.0435 16.0971 21.3316 16.7925 21.3316 17.5176V28.4533C21.3316 29.1784 21.0435 29.8738 20.5308 30.3865C20.0181 30.8992 19.3227 31.1872 18.5976 31.1872H13.1297C12.4046 31.1872 11.7092 30.8992 11.1965 30.3865C10.6838 29.8738 10.3958 29.1784 10.3958 28.4533V17.5176Z" fill="url(#paint4_radial_61_344)"/>
<path d="M16.7747 26.6304H14.9521C14.4488 26.6304 14.0408 27.0384 14.0408 27.5417C14.0408 28.045 14.4488 28.453 14.9521 28.453H16.7747C17.278 28.453 17.686 28.045 17.686 27.5417C17.686 27.0384 17.278 26.6304 16.7747 26.6304Z" fill="url(#paint5_radial_61_344)"/>
</g>
<rect x="1.11383" y="1.11383" width="148.51" height="38.9839" rx="7.79678" stroke="#888888" stroke-opacity="0.6" stroke-width="2.22765"/>
<defs>
<linearGradient id="paint0_linear_61_344" x1="35.8334" y1="30.3406" x2="33.7411" y2="20.6379" gradientUnits="userSpaceOnUse">
<stop stop-color="#63686E"/>
<stop offset="1" stop-color="#889096"/>
</linearGradient>
<linearGradient id="paint1_linear_61_344" x1="35.9127" y1="29.2343" x2="35.6721" y2="25.867" gradientUnits="userSpaceOnUse">
<stop stop-color="#889096"/>
<stop offset="1" stop-color="#AAB3BD"/>
</linearGradient>
<linearGradient id="paint2_linear_61_344" x1="27.5287" y1="11.1382" x2="28.3388" y2="27.8215" gradientUnits="userSpaceOnUse">
<stop stop-color="#6CE0FF"/>
<stop offset="1" stop-color="#4894FE"/>
</linearGradient>
<radialGradient id="paint3_radial_61_344" cx="0" cy="0" r="1" gradientUnits="userSpaceOnUse" gradientTransform="translate(19.5089 25.7191) scale(4.10094 11.847)">
<stop offset="0.009" stop-color="#4A43CB"/>
<stop offset="0.325" stop-color="#4A43CB"/>
<stop offset="1" stop-color="#4A43CB" stop-opacity="0"/>
</radialGradient>
<radialGradient id="paint4_radial_61_344" cx="0" cy="0" r="1" gradientTransform="matrix(13.3278 23.6827 -47.9037 26.9578 7.66175 9.14482)" gradientUnits="userSpaceOnUse">
<stop stop-color="#F08AF4"/>
<stop offset="0.535" stop-color="#9C6CFE"/>
<stop offset="1" stop-color="#4E44DB"/>
</radialGradient>
<radialGradient id="paint5_radial_61_344" cx="0" cy="0" r="1" gradientTransform="matrix(3.30353 4.43503 -5.08303 3.78611 13.4721 26.7516)" gradientUnits="userSpaceOnUse">
<stop stop-color="#DECBFF"/>
<stop offset="1" stop-color="#D6CFFF"/>
</radialGradient>
<clipPath id="clip0_61_344">
<rect width="150.738" height="41.2116" rx="8.91061" fill="white"/>
</clipPath>
</defs>
</svg>
